<svg data-v-423bf9ae="" xmlns="http://www.w3.org/2000/svg" viewBox="0 0 536 90" class="iconLeftSlogan"><!----><!----><!----><g data-v-423bf9ae="" id="6e66a743-b7f2-4f33-91e1-7db631b7f3ff" fill="white" transform="matrix(6.322444195736564,0,0,6.322444195736564,109.11485726069805,-34.45731918401658)"><path d="M5.36 11.80L5.36 14.64L5.36 14.64Q5.21 14.69 4.89 14.73L4.89 14.73L4.89 14.73Q4.56 14.77 4.26 14.77L4.26 14.77L4.26 14.77Q3.61 14.77 3.29 14.55L3.29 14.55L3.29 14.55Q2.97 14.34 2.97 13.64L2.97 13.64L2.97 11.75L2.97 11.75Q2.62 11.23 2.21 10.60L2.21 10.60L2.21 10.60Q1.81 9.97 1.41 9.31L1.41 9.31L1.41 9.31Q1.02 8.65 0.69 8.02L0.69 8.02L0.69 8.02Q0.35 7.38 0.14 6.85L0.14 6.85L0.14 6.85Q0.32 6.59 0.64 6.38L0.64 6.38L0.64 6.38Q0.95 6.17 1.41 6.17L1.41 6.17L1.41 6.17Q1.96 6.17 2.30 6.40L2.30 6.40L2.30 6.40Q2.65 6.62 2.95 7.24L2.95 7.24L4.12 9.58L4.20 9.58L4.20 9.58Q4.40 9.14 4.54 8.79L4.54 8.79L4.54 8.79Q4.69 8.43 4.83 8.07L4.83 8.07L4.83 8.07Q4.97 7.71 5.12 7.33L5.12 7.33L5.12 7.33Q5.28 6.94 5.47 6.44L5.47 6.44L5.47 6.44Q5.73 6.31 6.03 6.24L6.03 6.24L6.03 6.24Q6.34 6.17 6.62 6.17L6.62 6.17L6.62 6.17Q7.11 6.17 7.46 6.43L7.46 6.43L7.46 6.43Q7.80 6.69 7.80 7.21L7.80 7.21L7.80 7.21Q7.80 7.38 7.73 7.62L7.73 7.62L7.73 7.62Q7.66 7.85 7.41 8.34L7.41 8.34L7.41 8.34Q7.15 8.82 6.67 9.65L6.67 9.65L6.67 9.65Q6.19 10.47 5.36 11.80L5.36 11.80ZM12.36 14.92L12.36 14.92L12.36 14.92Q11.54 14.92 10.83 14.69L10.83 14.69L10.83 14.69Q10.12 14.46 9.60 14.00L9.60 14.00L9.60 14.00Q9.07 13.54 8.77 12.84L8.77 12.84L8.77 12.84Q8.47 12.14 8.47 11.20L8.47 11.20L8.47 11.20Q8.47 10.28 8.77 9.61L8.77 9.61L8.77 9.61Q9.07 8.95 9.56 8.52L9.56 8.52L9.56 8.52Q10.05 8.09 10.68 7.89L10.68 7.89L10.68 7.89Q11.31 7.69 11.97 7.69L11.97 7.69L11.97 7.69Q12.71 7.69 13.32 7.91L13.32 7.91L13.32 7.91Q13.93 8.13 14.37 8.53L14.37 8.53L14.37 8.53Q14.81 8.92 15.06 9.46L15.06 9.46L15.06 9.46Q15.30 10.01 15.30 10.65L15.30 10.65L15.30 10.65Q15.30 11.13 15.04 11.38L15.04 11.38L15.04 11.38Q14.77 11.63 14.29 11.70L14.29 11.70L10.84 12.22L10.84 12.22Q10.99 12.68 11.47 12.92L11.47 12.92L11.47 12.92Q11.94 13.15 12.56 13.15L12.56 13.15L12.56 13.15Q13.13 13.15 13.64 13.00L13.64 13.00L13.64 13.00Q14.15 12.85 14.48 12.66L14.48 12.66L14.48 12.66Q14.70 12.80 14.85 13.05L14.85 13.05L14.85 13.05Q15.01 13.30 15.01 13.58L15.01 13.58L15.01 13.58Q15.01 14.21 14.42 14.52L14.42 14.52L14.42 14.52Q13.97 14.76 13.41 14.84L13.41 14.84L13.41 14.84Q12.85 14.92 12.36 14.92ZM11.97 9.42L11.97 9.42L11.97 9.42Q11.63 9.42 11.39 9.53L11.39 9.53L11.39 9.53Q11.14 9.65 10.99 9.82L10.99 9.82L10.99 9.82Q10.84 10.00 10.76 10.21L10.76 10.21L10.76 10.21Q10.68 10.43 10.67 10.65L10.67 10.65L13.06 10.26L13.06 10.26Q13.02 9.98 12.75 9.70L12.75 9.70L12.75 9.70Q12.49 9.42 11.97 9.42ZM21.69 14.74L17.93 14.74L17.93 14.74Q17.33 14.74 16.98 14.39L16.98 14.39L16.98 14.39Q16.63 14.04 16.63 13.44L16.63 13.44L16.63 6.20L16.63 6.20Q16.79 6.17 17.12 6.13L17.12 6.13L17.12 6.13Q17.46 6.08 17.77 6.08L17.77 6.08L17.77 6.08Q18.09 6.08 18.33 6.13L18.33 6.13L18.33 6.13Q18.58 6.17 18.75 6.30L18.75 6.30L18.75 6.30Q18.91 6.43 19.00 6.65L19.00 6.65L19.00 6.65Q19.08 6.87 19.08 7.24L19.08 7.24L19.08 12.77L22.29 12.77L22.29 12.77Q22.39 12.92 22.47 13.18L22.47 13.18L22.47 13.18Q22.55 13.44 22.55 13.72L22.55 13.72L22.55 13.72Q22.55 14.28 22.32 14.51L22.32 14.51L22.32 14.51Q22.08 14.74 21.69 14.74L21.69 14.74ZM23.63 12.00L23.63 7.99L23.63 7.99Q23.77 7.95 24.07 7.91L24.07 7.91L24.07 7.91Q24.37 7.87 24.70 7.87L24.70 7.87L24.70 7.87Q25.00 7.87 25.25 7.91L25.25 7.91L25.25 7.91Q25.49 7.95 25.66 8.08L25.66 8.08L25.66 8.08Q25.83 8.20 25.92 8.42L25.92 8.42L25.92 8.42Q26.01 8.64 26.01 8.99L26.01 8.99L26.01 12.00L26.01 12.00Q26.01 12.57 26.29 12.82L26.29 12.82L26.29 12.82Q26.57 13.06 27.10 13.06L27.10 13.06L27.10 13.06Q27.43 13.06 27.63 13.01L27.63 13.01L27.63 13.01Q27.83 12.95 27.94 12.89L27.94 12.89L27.94 7.99L27.94 7.99Q28.08 7.95 28.38 7.91L28.38 7.91L28.38 7.91Q28.69 7.87 29.01 7.87L29.01 7.87L29.01 7.87Q29.32 7.87 29.56 7.91L29.56 7.91L29.56 7.91Q29.81 7.95 29.97 8.08L29.97 8.08L29.97 8.08Q30.14 8.20 30.23 8.42L30.23 8.42L30.23 8.42Q30.32 8.64 30.32 8.99L30.32 8.99L30.32 13.24L30.32 13.24Q30.32 13.94 29.74 14.29L29.74 14.29L29.74 14.29Q29.25 14.60 28.57 14.76L28.57 14.76L28.57 14.76Q27.89 14.92 27.09 14.92L27.09 14.92L27.09 14.92Q26.33 14.92 25.70 14.76L25.70 14.76L25.70 14.76Q25.06 14.59 24.60 14.24L24.60 14.24L24.60 14.24Q24.14 13.89 23.88 13.34L23.88 13.34L23.88 13.34Q23.63 12.78 23.63 12.00L23.63 12.00ZM36.47 8.18L34.37 8.18L34.37 8.18Q34.27 8.02 34.19 7.76L34.19 7.76L34.19 7.76Q34.10 7.49 34.10 7.20L34.10 7.20L34.10 7.20Q34.10 6.65 34.35 6.41L34.35 6.41L34.35 6.41Q34.59 6.17 34.99 6.17L34.99 6.17L41.09 6.17L41.09 6.17Q41.19 6.33 41.27 6.59L41.27 6.59L41.27 6.59Q41.36 6.86 41.36 7.15L41.36 7.15L41.36 7.15Q41.36 7.70 41.11 7.94L41.11 7.94L41.11 7.94Q40.87 8.18 40.47 8.18L40.47 8.18L38.92 8.18L38.92 14.64L38.92 14.64Q38.77 14.69 38.44 14.73L38.44 14.73L38.44 14.73Q38.11 14.77 37.79 14.77L37.79 14.77L37.79 14.77Q37.46 14.77 37.22 14.72L37.22 14.72L37.22 14.72Q36.97 14.67 36.81 14.55L36.81 14.55L36.81 14.55Q36.64 14.42 36.55 14.20L36.55 14.20L36.55 14.20Q36.47 13.97 36.47 13.61L36.47 13.61L36.47 8.18ZM45.96 14.92L45.96 14.92L45.96 14.92Q45.14 14.92 44.43 14.69L44.43 14.69L44.43 14.69Q43.72 14.46 43.20 14.00L43.20 14.00L43.20 14.00Q42.67 13.54 42.37 12.84L42.37 12.84L42.37 12.84Q42.07 12.14 42.07 11.20L42.07 11.20L42.07 11.20Q42.07 10.28 42.37 9.61L42.37 9.61L42.37 9.61Q42.67 8.95 43.16 8.52L43.16 8.52L43.16 8.52Q43.65 8.09 44.28 7.89L44.28 7.89L44.28 7.89Q44.91 7.69 45.57 7.69L45.57 7.69L45.57 7.69Q46.31 7.69 46.92 7.91L46.92 7.91L46.92 7.91Q47.53 8.13 47.97 8.53L47.97 8.53L47.97 8.53Q48.41 8.92 48.66 9.46L48.66 9.46L48.66 9.46Q48.90 10.01 48.90 10.65L48.90 10.65L48.90 10.65Q48.90 11.13 48.64 11.38L48.64 11.38L48.64 11.38Q48.37 11.63 47.89 11.70L47.89 11.70L44.44 12.22L44.44 12.22Q44.59 12.68 45.07 12.92L45.07 12.92L45.07 12.92Q45.54 13.15 46.16 13.15L46.16 13.15L46.16 13.15Q46.73 13.15 47.24 13.00L47.24 13.00L47.24 13.00Q47.75 12.85 48.08 12.66L48.08 12.66L48.08 12.66Q48.30 12.80 48.45 13.05L48.45 13.05L48.45 13.05Q48.61 13.30 48.61 13.58L48.61 13.58L48.61 13.58Q48.61 14.21 48.02 14.52L48.02 14.52L48.02 14.52Q47.57 14.76 47.01 14.84L47.01 14.84L47.01 14.84Q46.45 14.92 45.96 14.92ZM45.57 9.42L45.57 9.42L45.57 9.42Q45.23 9.42 44.99 9.53L44.99 9.53L44.99 9.53Q44.74 9.65 44.59 9.82L44.59 9.82L44.59 9.82Q44.44 10.00 44.36 10.21L44.36 10.21L44.36 10.21Q44.28 10.43 44.27 10.65L44.27 10.65L46.66 10.26L46.66 10.26Q46.62 9.98 46.35 9.70L46.35 9.70L46.35 9.70Q46.09 9.42 45.57 9.42ZM53.89 9.56L53.89 9.56L53.89 9.56Q53.54 9.56 53.22 9.67L53.22 9.67L53.22 9.67Q52.91 9.79 52.67 10.00L52.67 10.00L52.67 10.00Q52.44 10.22 52.30 10.54L52.30 10.54L52.30 10.54Q52.16 10.86 52.16 11.30L52.16 11.30L52.16 11.30Q52.16 12.17 52.66 12.60L52.66 12.60L52.66 12.60Q53.16 13.03 53.87 13.03L53.87 13.03L53.87 13.03Q54.29 13.03 54.60 12.94L54.60 12.94L54.60 12.94Q54.91 12.84 55.15 12.73L55.15 12.73L55.15 12.73Q55.43 12.92 55.57 13.15L55.57 13.15L55.57 13.15Q55.71 13.38 55.71 13.71L55.71 13.71L55.71 13.71Q55.71 14.28 55.16 14.60L55.16 14.60L55.16 14.60Q54.61 14.91 53.65 14.91L53.65 14.91L53.65 14.91Q52.77 14.91 52.05 14.65L52.05 14.65L52.05 14.65Q51.34 14.39 50.83 13.92L50.83 13.92L50.83 13.92Q50.32 13.45 50.04 12.80L50.04 12.80L50.04 12.80Q49.76 12.14 49.76 11.34L49.76 11.34L49.76 11.34Q49.76 10.42 50.06 9.72L50.06 9.72L50.06 9.72Q50.36 9.03 50.88 8.58L50.88 8.58L50.88 8.58Q51.39 8.13 52.07 7.91L52.07 7.91L52.07 7.91Q52.75 7.69 53.51 7.69L53.51 7.69L53.51 7.69Q54.52 7.69 55.06 8.05L55.06 8.05L55.06 8.05Q55.61 8.41 55.61 8.99L55.61 8.99L55.61 8.99Q55.61 9.25 55.48 9.49L55.48 9.49L55.48 9.49Q55.36 9.72 55.19 9.88L55.19 9.88L55.19 9.88Q54.95 9.77 54.61 9.67L54.61 9.67L54.61 9.67Q54.28 9.56 53.89 9.56ZM63.62 10.44L63.62 14.69L63.62 14.69Q63.48 14.73 63.17 14.77L63.17 14.77L63.17 14.77Q62.87 14.81 62.55 14.81L62.55 14.81L62.55 14.81Q62.24 14.81 62.00 14.77L62.00 14.77L62.00 14.77Q61.75 14.73 61.59 14.60L61.59 14.60L61.59 14.60Q61.42 14.48 61.33 14.26L61.33 14.26L61.33 14.26Q61.24 14.04 61.24 13.69L61.24 13.69L61.24 10.58L61.24 10.58Q61.24 10.01 60.95 9.78L60.95 9.78L60.95 9.78Q60.66 9.55 60.24 9.55L60.24 9.55L60.24 9.55Q59.96 9.55 59.71 9.62L59.71 9.62L59.71 9.62Q59.46 9.69 59.30 9.79L59.30 9.79L59.30 14.69L59.30 14.69Q59.16 14.73 58.86 14.77L58.86 14.77L58.86 14.77Q58.56 14.81 58.24 14.81L58.24 14.81L58.24 14.81Q57.93 14.81 57.69 14.77L57.69 14.77L57.69 14.77Q57.44 14.73 57.27 14.60L57.27 14.60L57.27 14.60Q57.11 14.48 57.01 14.26L57.01 14.26L57.01 14.26Q56.92 14.04 56.92 13.69L56.92 13.69L56.92 5.57L56.92 5.57Q57.08 5.54 57.38 5.50L57.38 5.50L57.38 5.50Q57.68 5.45 57.99 5.45L57.99 5.45L57.99 5.45Q58.30 5.45 58.54 5.49L58.54 5.49L58.54 5.49Q58.79 5.53 58.95 5.66L58.95 5.66L58.95 5.66Q59.12 5.78 59.21 6.00L59.21 6.00L59.21 6.00Q59.30 6.22 59.30 6.57L59.30 6.57L59.30 7.94L59.30 7.94Q59.49 7.87 59.86 7.78L59.86 7.78L59.86 7.78Q60.23 7.69 60.68 7.69L60.68 7.69L60.68 7.69Q62.06 7.69 62.84 8.38L62.84 8.38L62.84 8.38Q63.62 9.07 63.62 10.44L63.62 10.44ZM64.67 13.57L64.67 13.57L64.67 13.57Q64.67 12.98 65.03 12.59L65.03 12.59L65.03 12.59Q65.39 12.19 66.02 12.19L66.02 12.19L66.02 12.19Q66.65 12.19 67.02 12.59L67.02 12.59L67.02 12.59Q67.38 12.98 67.38 13.57L67.38 13.57L67.38 13.57Q67.38 14.15 67.02 14.55L67.02 14.55L67.02 14.55Q66.65 14.94 66.02 14.94L66.02 14.94L66.02 14.94Q65.39 14.94 65.03 14.55L65.03 14.55L65.03 14.55Q64.67 14.15 64.67 13.57Z"></path></g><!----><g data-v-423bf9ae="" id="bcbcb911-7cac-45b8-858c-97521ba02e3c" transform="matrix(1,0,0,1,-5,-4)" stroke="none" fill="white"><path d="M75 4.333H25c-11.046 0-20 8.955-20 20v50c0 11.046 8.954 20 20 20h50c11.046 0 20-8.954 20-20v-50c0-11.045-8.954-20-20-20zm18 70c0 9.926-8.075 18-18 18H25c-9.925 0-18-8.074-18-18v-50c0-9.925 8.075-18 18-18h50c9.925 0 18 8.075 18 18v50z"></path><circle cx="37" cy="25" r="9.5"></circle><circle cx="63" cy="25" r="9.5"></circle><circle cx="63" cy="50" r="9.5"></circle><path d="M37 57.125a7.125 7.125 0 1 0 0-14.25 7.125 7.125 0 0 0 0 14.25zm0-11.875c2.62 0 4.75 2.13 4.75 4.75s-2.13 4.75-4.75 4.75-4.75-2.13-4.75-4.75 2.13-4.75 4.75-4.75z"></path><circle cx="37" cy="75" r="9.5"></circle><circle cx="63" cy="75" r="9.5"></circle></g><!----><g data-v-423bf9ae="" id="48dc4322-6d03-4dc5-978f-7214ece171a3" fill="white" transform="matrix(0.640435600791229,0,0,0.640435600791229,109.66056903326444,57.67522029456179)"><path d="M5.73 12.70C5.70 12.66 5.64 12.63 5.59 12.63C5.53 12.63 5.47 12.66 5.39 12.74C5.31 12.82 5.18 12.91 5.04 13.01C4.90 13.10 4.70 13.17 4.48 13.26C4.26 13.34 3.96 13.38 3.63 13.38C3.26 13.38 2.93 13.31 2.63 13.17C2.34 13.03 2.09 12.85 1.88 12.59C1.67 12.33 1.50 12.01 1.39 11.63C1.27 11.26 1.22 10.82 1.22 10.33C1.22 9.86 1.27 9.44 1.39 9.06C1.50 8.68 1.67 8.36 1.88 8.09C2.09 7.83 2.35 7.62 2.66 7.48C2.97 7.34 3.32 7.27 3.72 7.27C4.07 7.27 4.47 7.35 4.91 7.50C4.93 7.69 4.93 7.87 4.94 8.04C4.96 8.20 4.97 8.33 4.98 8.43C5.00 8.53 5.00 8.58 5.00 8.60C5.01 8.82 5.11 8.93 5.31 8.93L5.64 8.93L5.64 7.18L5.28 7.07C5.04 7.00 4.75 6.92 4.42 6.85C4.10 6.78 3.85 6.75 3.68 6.75C3.18 6.75 2.74 6.82 2.35 7.00C1.96 7.18 1.62 7.42 1.36 7.74C1.09 8.06 0.90 8.44 0.76 8.88C0.62 9.31 0.53 9.80 0.53 10.33C0.53 10.89 0.60 11.40 0.76 11.84C0.90 12.29 1.11 12.66 1.37 12.96C1.64 13.27 1.96 13.51 2.32 13.66C2.69 13.83 3.08 13.92 3.53 13.92C3.79 13.92 4.05 13.89 4.28 13.83C4.52 13.78 4.75 13.72 4.96 13.64C5.17 13.55 5.33 13.44 5.50 13.31C5.67 13.19 5.80 13.06 5.91 12.92ZM21.34 13.29L21.25 13.29L21.15 13.29C21.11 13.29 21.04 13.27 20.94 13.27C20.85 13.27 20.72 13.26 20.59 13.26L20.59 9.37C20.59 8.96 20.55 8.60 20.45 8.27C20.36 7.95 20.22 7.67 20.02 7.45C19.82 7.22 19.59 7.06 19.29 6.93C19.00 6.80 18.66 6.75 18.28 6.75C17.77 6.75 17.30 6.86 16.88 7.10C16.48 7.34 16.11 7.66 15.79 8.05L15.79 3.64L15.12 3.64L14.11 3.64L14.11 3.91C14.11 4.06 14.21 4.14 14.39 4.16L14.46 4.16C14.49 4.16 14.53 4.17 14.57 4.17L14.78 4.17C14.88 4.17 14.99 4.19 15.12 4.19L15.12 13.26C14.97 13.26 14.83 13.29 14.71 13.29L14.48 13.29L14.39 13.29C14.21 13.30 14.11 13.38 14.11 13.54L14.11 13.82L15.12 13.82L15.79 13.82L16.80 13.82L16.80 13.54C16.80 13.38 16.70 13.30 16.52 13.29L16.45 13.29L16.34 13.29C16.30 13.29 16.23 13.27 16.13 13.27C16.03 13.27 15.92 13.26 15.79 13.26L15.79 8.60C16.10 8.19 16.45 7.87 16.84 7.63C17.23 7.39 17.65 7.28 18.12 7.28C18.73 7.28 19.19 7.46 19.49 7.83C19.78 8.20 19.94 8.71 19.94 9.37L19.94 13.82L20.59 13.82L21.60 13.82L21.60 13.54C21.60 13.38 21.52 13.30 21.34 13.29ZM35.46 13.29L35.36 13.29L35.14 13.29C35.04 13.29 34.93 13.27 34.82 13.27L34.82 9.28C34.82 8.89 34.78 8.55 34.68 8.23C34.58 7.91 34.44 7.64 34.26 7.42C34.08 7.20 33.84 7.03 33.56 6.92C33.28 6.79 32.96 6.73 32.58 6.73C32.07 6.73 31.63 6.83 31.22 7.01C30.81 7.20 30.44 7.48 30.07 7.84L30.18 8.05C30.23 8.13 30.30 8.18 30.39 8.18C30.46 8.18 30.56 8.12 30.66 8.02C30.76 7.92 30.90 7.84 31.07 7.73C31.23 7.62 31.42 7.52 31.65 7.42C31.89 7.32 32.17 7.28 32.51 7.28C33.05 7.28 33.47 7.45 33.75 7.80C34.03 8.15 34.16 8.64 34.16 9.28L34.16 10.01C33.38 10.02 32.70 10.09 32.14 10.21C31.58 10.32 31.12 10.47 30.76 10.65C30.39 10.84 30.14 11.06 29.97 11.31C29.81 11.56 29.72 11.83 29.72 12.12C29.72 12.45 29.78 12.73 29.88 12.95C29.99 13.17 30.13 13.36 30.30 13.50C30.46 13.64 30.67 13.75 30.90 13.82C31.12 13.89 31.35 13.93 31.58 13.93C31.86 13.93 32.13 13.90 32.37 13.85C32.61 13.79 32.82 13.71 33.03 13.61C33.24 13.51 33.43 13.38 33.63 13.23C33.81 13.08 33.99 12.91 34.19 12.73L34.29 13.62C34.31 13.75 34.41 13.82 34.55 13.82L34.57 13.82L34.82 13.82L35.74 13.82L35.74 13.54C35.74 13.38 35.64 13.30 35.46 13.29ZM34.16 12.26C33.99 12.43 33.84 12.60 33.67 12.74C33.50 12.88 33.32 13.01 33.12 13.12C32.93 13.23 32.72 13.30 32.49 13.36C32.27 13.41 32.02 13.44 31.75 13.44C31.57 13.44 31.39 13.43 31.22 13.37C31.05 13.31 30.91 13.24 30.79 13.13C30.66 13.02 30.55 12.88 30.48 12.71C30.39 12.54 30.37 12.35 30.37 12.11C30.37 11.86 30.44 11.63 30.59 11.44C30.74 11.24 30.97 11.09 31.28 10.95C31.58 10.81 31.98 10.70 32.45 10.61C32.93 10.53 33.50 10.47 34.16 10.46ZM51.28 13.29L51.21 13.29L51.10 13.29C51.06 13.29 50.99 13.27 50.89 13.27C50.79 13.27 50.68 13.26 50.55 13.26L50.55 9.37C50.55 8.96 50.50 8.60 50.40 8.27C50.30 7.95 50.16 7.67 49.97 7.45C49.77 7.22 49.53 7.06 49.24 6.93C48.94 6.80 48.61 6.75 48.23 6.75C47.71 6.75 47.24 6.87 46.82 7.11C46.40 7.36 46.03 7.67 45.71 8.08L45.65 7.03C45.64 6.92 45.57 6.86 45.44 6.86L45.08 6.86L44.07 6.86L44.07 7.13C44.07 7.28 44.16 7.36 44.34 7.38L44.42 7.38C44.45 7.38 44.48 7.39 44.52 7.39L44.73 7.39C44.83 7.39 44.95 7.41 45.08 7.41L45.08 13.26C44.91 13.26 44.77 13.29 44.66 13.29L44.44 13.29L44.34 13.29C44.16 13.30 44.07 13.38 44.07 13.54L44.07 13.82L45.08 13.82L45.74 13.82L46.75 13.82L46.75 13.54C46.75 13.38 46.66 13.30 46.48 13.29L46.40 13.29L46.30 13.29C46.26 13.29 46.19 13.27 46.09 13.27C45.99 13.27 45.86 13.26 45.74 13.26L45.74 8.60C46.05 8.19 46.40 7.87 46.79 7.63C47.18 7.39 47.60 7.28 48.06 7.28C48.68 7.28 49.14 7.46 49.43 7.83C49.73 8.20 49.88 8.71 49.88 9.37L49.88 13.82L50.55 13.82L51.56 13.82L51.56 13.54C51.56 13.38 51.46 13.30 51.28 13.29ZM62.48 6.73C62.10 6.73 61.77 6.79 61.46 6.90C61.15 7.01 60.90 7.15 60.68 7.35C60.45 7.55 60.28 7.77 60.17 8.05C60.06 8.33 59.99 8.64 59.99 8.97C59.99 9.39 60.09 9.76 60.27 10.08C60.45 10.40 60.70 10.65 61.04 10.85C60.90 10.92 60.79 11.00 60.68 11.10C60.56 11.20 60.48 11.28 60.41 11.40C60.34 11.51 60.28 11.61 60.24 11.72C60.20 11.83 60.19 11.93 60.19 12.03C60.19 12.29 60.24 12.49 60.38 12.64C60.52 12.80 60.70 12.89 60.94 12.98C60.52 13.12 60.17 13.33 59.93 13.59C59.70 13.86 59.57 14.18 59.57 14.55C59.57 14.80 59.64 15.05 59.77 15.27C59.89 15.50 60.07 15.69 60.33 15.86C60.58 16.03 60.89 16.17 61.25 16.27C61.61 16.37 62.05 16.42 62.54 16.42C63.01 16.42 63.46 16.35 63.85 16.23C64.25 16.10 64.55 15.95 64.83 15.74C65.11 15.53 65.32 15.29 65.46 15.02C65.60 14.76 65.67 14.49 65.67 14.20C65.67 13.89 65.62 13.64 65.48 13.44C65.34 13.24 65.14 13.12 64.92 13.01C64.69 12.89 64.41 12.82 64.12 12.78C63.83 12.74 63.53 12.71 63.22 12.70C62.92 12.68 62.61 12.66 62.31 12.64C62.02 12.63 61.75 12.61 61.53 12.56C61.31 12.50 61.11 12.43 60.97 12.32C60.83 12.21 60.76 12.05 60.76 11.86C60.76 11.72 60.82 11.56 60.93 11.41C61.04 11.26 61.19 11.13 61.39 11.02C61.71 11.14 62.08 11.19 62.48 11.19C62.85 11.19 63.18 11.14 63.49 11.03C63.80 10.92 64.05 10.78 64.27 10.58C64.50 10.39 64.65 10.16 64.78 9.88C64.90 9.60 64.96 9.31 64.96 8.97C64.96 8.72 64.93 8.48 64.86 8.26C64.79 8.04 64.68 7.84 64.55 7.66L65.62 7.57C65.74 7.56 65.81 7.50 65.81 7.39L65.81 7.15L64.02 7.15C63.81 7.01 63.57 6.92 63.32 6.85C63.07 6.78 62.79 6.73 62.48 6.73ZM65.07 14.29C65.07 14.53 65.00 14.74 64.88 14.94C64.75 15.13 64.57 15.33 64.34 15.47C64.12 15.61 63.85 15.72 63.55 15.81C63.24 15.89 62.90 15.92 62.55 15.92C62.17 15.92 61.84 15.88 61.54 15.81C61.25 15.74 60.98 15.62 60.79 15.50C60.59 15.37 60.44 15.22 60.33 15.05C60.21 14.88 60.17 14.69 60.17 14.48C60.17 14.31 60.21 14.17 60.27 14.03C60.33 13.89 60.41 13.76 60.52 13.65C60.63 13.54 60.75 13.43 60.90 13.34C61.05 13.26 61.22 13.17 61.40 13.10C61.64 13.15 61.89 13.17 62.17 13.19C62.45 13.20 62.71 13.22 62.99 13.23C63.27 13.24 63.52 13.26 63.77 13.29C64.02 13.31 64.25 13.38 64.44 13.45C64.64 13.52 64.78 13.62 64.89 13.76C65.00 13.90 65.07 14.07 65.07 14.29ZM62.48 10.74C62.19 10.74 61.94 10.70 61.70 10.61C61.46 10.53 61.26 10.40 61.10 10.25C60.93 10.09 60.82 9.91 60.73 9.70C60.65 9.49 60.61 9.25 60.61 8.99C60.61 8.72 60.65 8.48 60.73 8.26C60.82 8.04 60.93 7.87 61.10 7.71C61.26 7.56 61.46 7.43 61.70 7.35C61.94 7.27 62.19 7.22 62.48 7.22C62.78 7.22 63.04 7.27 63.27 7.35C63.49 7.43 63.69 7.56 63.85 7.71C64.02 7.87 64.15 8.04 64.23 8.26C64.32 8.48 64.36 8.71 64.36 8.97C64.36 9.24 64.32 9.49 64.23 9.70C64.15 9.91 64.02 10.09 63.87 10.25C63.71 10.40 63.52 10.53 63.28 10.61C63.04 10.70 62.78 10.74 62.48 10.74ZM74.98 4.89C75.04 4.94 75.11 4.98 75.18 5.01C75.25 5.04 75.33 5.07 75.42 5.07C75.50 5.07 75.59 5.04 75.66 5.01C75.73 4.98 75.80 4.94 75.85 4.89C75.91 4.83 75.96 4.76 75.99 4.69C76.02 4.62 76.05 4.54 76.05 4.45C76.05 4.37 76.02 4.30 75.99 4.21C75.96 4.14 75.91 4.07 75.85 4.02C75.80 3.96 75.73 3.91 75.66 3.88C75.59 3.85 75.50 3.84 75.42 3.84C75.33 3.84 75.25 3.85 75.18 3.88C75.11 3.91 75.04 3.96 74.98 4.02C74.93 4.07 74.89 4.14 74.86 4.21C74.83 4.28 74.80 4.37 74.80 4.45C74.80 4.54 74.83 4.62 74.86 4.69C74.89 4.76 74.93 4.83 74.98 4.89ZM76.48 13.29L76.41 13.29L76.30 13.29C76.26 13.29 76.19 13.27 76.09 13.27C75.99 13.27 75.88 13.26 75.75 13.26L75.75 6.85L75.08 6.85L74.07 6.85L74.07 7.13C74.07 7.28 74.17 7.36 74.35 7.38L74.42 7.38C74.45 7.38 74.49 7.39 74.54 7.39L74.75 7.39C74.84 7.39 74.96 7.41 75.08 7.41L75.08 13.26C74.93 13.26 74.79 13.29 74.68 13.29L74.44 13.29L74.35 13.29C74.17 13.30 74.07 13.38 74.07 13.54L74.07 13.82L75.08 13.82L75.75 13.82L76.76 13.82L76.76 13.54C76.76 13.38 76.66 13.30 76.48 13.29ZM92.26 13.29L92.19 13.29L92.08 13.29C92.04 13.29 91.97 13.27 91.87 13.27C91.77 13.27 91.66 13.26 91.53 13.26L91.53 9.37C91.53 8.96 91.48 8.60 91.38 8.27C91.28 7.95 91.14 7.67 90.94 7.45C90.75 7.22 90.51 7.06 90.22 6.93C89.92 6.80 89.59 6.75 89.21 6.75C88.69 6.75 88.21 6.87 87.79 7.11C87.37 7.36 87.01 7.67 86.69 8.08L86.63 7.03C86.62 6.92 86.55 6.86 86.42 6.86L86.06 6.86L85.05 6.86L85.05 7.13C85.05 7.28 85.13 7.36 85.32 7.38L85.40 7.38C85.43 7.38 85.46 7.39 85.50 7.39L85.71 7.39C85.81 7.39 85.93 7.41 86.06 7.41L86.06 13.26C85.89 13.26 85.75 13.29 85.64 13.29L85.41 13.29L85.32 13.29C85.13 13.30 85.05 13.38 85.05 13.54L85.05 13.82L86.06 13.82L86.72 13.82L87.72 13.82L87.72 13.54C87.72 13.38 87.64 13.30 87.46 13.29L87.37 13.29L87.28 13.29C87.23 13.29 87.16 13.27 87.07 13.27C86.97 13.27 86.84 13.26 86.72 13.26L86.72 8.60C87.02 8.19 87.37 7.87 87.77 7.63C88.16 7.39 88.58 7.28 89.04 7.28C89.66 7.28 90.12 7.46 90.41 7.83C90.71 8.20 90.86 8.71 90.86 9.37L90.86 13.82L91.53 13.82L92.54 13.82L92.54 13.54C92.54 13.38 92.44 13.30 92.26 13.29ZM103.46 6.73C103.08 6.73 102.75 6.79 102.44 6.90C102.13 7.01 101.88 7.15 101.65 7.35C101.43 7.55 101.26 7.77 101.15 8.05C101.04 8.33 100.97 8.64 100.97 8.97C100.97 9.39 101.07 9.76 101.25 10.08C101.43 10.40 101.68 10.65 102.02 10.85C101.88 10.92 101.77 11.00 101.65 11.10C101.54 11.20 101.46 11.28 101.39 11.40C101.32 11.51 101.26 11.61 101.22 11.72C101.18 11.83 101.16 11.93 101.16 12.03C101.16 12.29 101.22 12.49 101.36 12.64C101.50 12.80 101.68 12.89 101.92 12.98C101.50 13.12 101.15 13.33 100.91 13.59C100.67 13.86 100.55 14.18 100.55 14.55C100.55 14.80 100.62 15.05 100.74 15.27C100.87 15.50 101.05 15.69 101.30 15.86C101.56 16.03 101.86 16.17 102.23 16.27C102.59 16.37 103.03 16.42 103.52 16.42C103.99 16.42 104.44 16.35 104.83 16.23C105.22 16.10 105.53 15.95 105.81 15.74C106.09 15.53 106.30 15.29 106.44 15.02C106.58 14.76 106.65 14.49 106.65 14.20C106.65 13.89 106.60 13.64 106.46 13.44C106.32 13.24 106.12 13.12 105.90 13.01C105.67 12.89 105.39 12.82 105.10 12.78C104.80 12.74 104.51 12.71 104.20 12.70C103.89 12.68 103.59 12.66 103.29 12.64C103.00 12.63 102.73 12.61 102.51 12.56C102.28 12.50 102.09 12.43 101.95 12.32C101.81 12.21 101.74 12.05 101.74 11.86C101.74 11.72 101.79 11.56 101.91 11.41C102.02 11.26 102.17 11.13 102.37 11.02C102.69 11.14 103.05 11.19 103.46 11.19C103.82 11.19 104.16 11.14 104.47 11.03C104.78 10.92 105.03 10.78 105.25 10.58C105.48 10.39 105.63 10.16 105.76 9.88C105.88 9.60 105.94 9.31 105.94 8.97C105.94 8.72 105.91 8.48 105.84 8.26C105.77 8.04 105.66 7.84 105.53 7.66L106.60 7.57C106.72 7.56 106.79 7.50 106.79 7.39L106.79 7.15L105 7.15C104.79 7.01 104.55 6.92 104.30 6.85C104.05 6.78 103.77 6.73 103.46 6.73ZM106.05 14.29C106.05 14.53 105.98 14.74 105.85 14.94C105.73 15.13 105.55 15.33 105.32 15.47C105.10 15.61 104.83 15.72 104.52 15.81C104.22 15.89 103.88 15.92 103.53 15.92C103.15 15.92 102.82 15.88 102.52 15.81C102.23 15.74 101.96 15.62 101.77 15.50C101.57 15.37 101.42 15.22 101.30 15.05C101.19 14.88 101.15 14.69 101.15 14.48C101.15 14.31 101.19 14.17 101.25 14.03C101.30 13.89 101.39 13.76 101.50 13.65C101.61 13.54 101.72 13.43 101.88 13.34C102.03 13.26 102.20 13.17 102.38 13.10C102.62 13.15 102.87 13.17 103.15 13.19C103.43 13.20 103.68 13.22 103.96 13.23C104.24 13.24 104.50 13.26 104.75 13.29C105 13.31 105.22 13.38 105.42 13.45C105.62 13.52 105.76 13.62 105.87 13.76C105.98 13.90 106.05 14.07 106.05 14.29ZM103.46 10.74C103.17 10.74 102.91 10.70 102.68 10.61C102.44 10.53 102.24 10.40 102.07 10.25C101.91 10.09 101.79 9.91 101.71 9.70C101.63 9.49 101.58 9.25 101.58 8.99C101.58 8.72 101.63 8.48 101.71 8.26C101.79 8.04 101.91 7.87 102.07 7.71C102.24 7.56 102.44 7.43 102.68 7.35C102.91 7.27 103.17 7.22 103.46 7.22C103.75 7.22 104.02 7.27 104.24 7.35C104.47 7.43 104.66 7.56 104.83 7.71C105 7.87 105.13 8.04 105.21 8.26C105.29 8.48 105.34 8.71 105.34 8.97C105.34 9.24 105.29 9.49 105.21 9.70C105.13 9.91 105 10.09 104.85 10.25C104.69 10.40 104.50 10.53 104.26 10.61C104.02 10.70 103.75 10.74 103.46 10.74ZM127.64 13.93C127.93 13.93 128.21 13.86 128.49 13.75C128.76 13.64 128.98 13.48 129.16 13.29L128.98 12.98C128.94 12.94 128.91 12.92 128.87 12.92C128.84 12.92 128.79 12.94 128.73 12.99C128.67 13.05 128.60 13.09 128.52 13.15C128.44 13.20 128.32 13.26 128.20 13.31C128.07 13.37 127.95 13.38 127.78 13.38C127.64 13.38 127.50 13.36 127.39 13.31C127.27 13.27 127.18 13.20 127.09 13.12C127.01 13.03 126.94 12.92 126.88 12.78C126.83 12.64 126.81 12.49 126.81 12.29L126.81 7.57L129.01 7.57L129.01 7.07L126.81 7.07L126.81 4.41L126.49 4.41C126.43 4.41 126.41 4.44 126.38 4.47C126.35 4.49 126.32 4.54 126.32 4.58L126.15 7.07L124.96 7.15L124.96 7.41C124.96 7.46 124.98 7.49 125.01 7.52C125.03 7.55 125.09 7.57 125.15 7.57L126.14 7.57L126.14 12.33C126.14 12.88 126.27 13.27 126.53 13.54C126.80 13.80 127.16 13.93 127.64 13.93ZM144.61 13.29L144.52 13.29L144.42 13.29C144.38 13.29 144.31 13.27 144.21 13.27C144.12 13.27 143.99 13.26 143.86 13.26L143.86 9.37C143.86 8.96 143.82 8.60 143.72 8.27C143.63 7.95 143.49 7.67 143.29 7.45C143.09 7.22 142.86 7.06 142.56 6.93C142.27 6.80 141.93 6.75 141.55 6.75C141.04 6.75 140.57 6.86 140.15 7.10C139.75 7.34 139.38 7.66 139.06 8.05L139.06 3.64L138.39 3.64L137.38 3.64L137.38 3.91C137.38 4.06 137.48 4.14 137.66 4.16L137.73 4.16C137.76 4.16 137.80 4.17 137.84 4.17L138.05 4.17C138.15 4.17 138.26 4.19 138.39 4.19L138.39 13.26C138.24 13.26 138.10 13.29 137.98 13.29L137.75 13.29L137.66 13.29C137.48 13.30 137.38 13.38 137.38 13.54L137.38 13.82L138.39 13.82L139.06 13.82L140.07 13.82L140.07 13.54C140.07 13.38 139.97 13.30 139.79 13.29L139.72 13.29L139.61 13.29C139.57 13.29 139.50 13.27 139.40 13.27C139.30 13.27 139.19 13.26 139.06 13.26L139.06 8.60C139.37 8.19 139.72 7.87 140.11 7.63C140.50 7.39 140.92 7.28 141.39 7.28C142.00 7.28 142.46 7.46 142.76 7.83C143.05 8.20 143.21 8.71 143.21 9.37L143.21 13.82L143.86 13.82L144.87 13.82L144.87 13.54C144.87 13.38 144.79 13.30 144.61 13.29ZM156.11 6.73C155.62 6.73 155.18 6.83 154.78 7.00C154.39 7.17 154.07 7.41 153.80 7.71C153.54 8.02 153.33 8.39 153.19 8.81C153.05 9.23 152.96 9.69 152.96 10.19C152.96 10.78 153.05 11.31 153.20 11.77C153.36 12.24 153.57 12.61 153.85 12.94C154.13 13.26 154.46 13.50 154.85 13.66C155.25 13.83 155.68 13.90 156.16 13.90C156.42 13.90 156.69 13.89 156.94 13.83C157.19 13.78 157.44 13.71 157.67 13.62C157.89 13.54 158.10 13.44 158.28 13.31C158.47 13.19 158.62 13.06 158.73 12.92L158.55 12.70C158.52 12.66 158.47 12.63 158.41 12.63C158.37 12.63 158.28 12.66 158.19 12.74C158.09 12.82 157.95 12.91 157.77 13.01C157.60 13.10 157.37 13.17 157.12 13.26C156.87 13.34 156.56 13.38 156.21 13.38C155.82 13.38 155.47 13.31 155.15 13.17C154.83 13.03 154.56 12.84 154.34 12.57C154.11 12.31 153.94 11.97 153.82 11.58C153.69 11.19 153.64 10.71 153.64 10.19L153.64 10.07L158.66 10.07C158.73 10.07 158.77 10.05 158.80 10.01C158.83 9.97 158.86 9.90 158.86 9.80C158.86 9.31 158.79 8.88 158.65 8.50C158.51 8.12 158.33 7.78 158.07 7.53C157.84 7.28 157.54 7.08 157.21 6.94C156.87 6.80 156.51 6.73 156.11 6.73ZM156.13 7.24C156.45 7.24 156.73 7.29 157.00 7.41C157.26 7.52 157.49 7.67 157.67 7.88C157.85 8.09 158.00 8.33 158.10 8.62C158.20 8.92 158.26 9.25 158.26 9.63L153.66 9.63C153.71 9.27 153.79 8.93 153.92 8.64C154.04 8.34 154.21 8.09 154.42 7.88C154.63 7.67 154.88 7.52 155.16 7.41C155.44 7.29 155.76 7.24 156.13 7.24ZM187.57 6.86L187.08 6.86L185.72 6.86L185.72 7.13C185.72 7.28 185.82 7.36 186.00 7.38L186.07 7.38C186.10 7.38 186.13 7.39 186.17 7.39L186.38 7.39C186.48 7.39 186.59 7.41 186.72 7.41L185.08 12.52C185.04 12.63 185.02 12.73 185.00 12.82C184.97 12.92 184.95 13.02 184.94 13.12C184.90 12.92 184.84 12.73 184.77 12.52L182.92 6.97C182.90 6.87 182.83 6.82 182.73 6.82L182.45 6.82C182.35 6.82 182.28 6.87 182.25 6.97L180.39 12.52C180.35 12.63 180.32 12.73 180.29 12.82L180.21 13.12C180.21 13.09 180.18 12.99 180.15 12.82C180.14 12.73 180.11 12.63 180.08 12.52L178.44 7.41C178.60 7.41 178.75 7.39 178.86 7.39C178.98 7.39 179.06 7.38 179.09 7.38L179.17 7.38C179.35 7.36 179.45 7.28 179.45 7.13L179.45 6.86L178.08 6.85L177.56 6.86L177.02 6.86L177.02 7.13C177.02 7.28 177.10 7.36 177.28 7.38L177.35 7.38L177.42 7.38C177.45 7.38 177.49 7.39 177.55 7.39L177.74 7.39L179.90 13.82L180.36 13.82C180.45 13.82 180.50 13.76 180.53 13.66L182.46 8.01C182.49 7.94 182.52 7.88 182.53 7.81L182.57 7.60L182.62 7.81C182.63 7.88 182.66 7.94 182.69 8.01L184.59 13.66C184.62 13.76 184.69 13.82 184.76 13.82L185.25 13.82L187.39 7.39L187.66 7.39C187.74 7.39 187.78 7.38 187.81 7.38L187.88 7.38C188.06 7.36 188.16 7.28 188.16 7.13L188.16 6.86ZM199.02 6.73C198.52 6.73 198.07 6.83 197.68 7.00C197.29 7.17 196.95 7.41 196.67 7.71C196.39 8.02 196.20 8.40 196.06 8.85C195.92 9.30 195.83 9.79 195.83 10.33C195.83 10.88 195.92 11.37 196.06 11.80C196.20 12.24 196.39 12.63 196.67 12.94C196.95 13.24 197.29 13.48 197.68 13.65C198.07 13.82 198.52 13.90 199.02 13.90C199.53 13.90 199.96 13.82 200.35 13.65C200.75 13.48 201.08 13.24 201.35 12.94C201.61 12.63 201.84 12.24 201.98 11.80C202.12 11.37 202.19 10.88 202.19 10.33C202.19 9.79 202.12 9.30 201.98 8.85C201.84 8.40 201.61 8.02 201.35 7.71C201.08 7.41 200.75 7.17 200.35 7.00C199.96 6.83 199.53 6.73 199.02 6.73ZM199.02 13.38C198.60 13.38 198.24 13.31 197.93 13.17C197.62 13.03 197.36 12.82 197.15 12.56C196.94 12.29 196.80 11.97 196.69 11.59C196.57 11.21 196.53 10.79 196.53 10.33C196.53 9.87 196.57 9.45 196.69 9.07C196.80 8.69 196.94 8.37 197.15 8.11C197.36 7.84 197.62 7.62 197.93 7.48C198.24 7.34 198.60 7.27 199.02 7.27C199.44 7.27 199.79 7.34 200.10 7.48C200.41 7.62 200.68 7.84 200.89 8.11C201.10 8.37 201.25 8.69 201.35 9.07C201.45 9.45 201.50 9.87 201.50 10.33C201.50 10.79 201.45 11.21 201.35 11.59C201.25 11.97 201.10 12.29 200.89 12.56C200.68 12.82 200.41 13.03 200.10 13.17C199.79 13.31 199.44 13.38 199.02 13.38ZM214.94 6.80C214.76 6.76 214.58 6.73 214.37 6.73C213.82 6.73 213.36 6.89 212.98 7.21C212.60 7.53 212.31 7.98 212.09 8.54L212.03 7.07C212.03 6.99 212.00 6.93 211.97 6.90C211.95 6.87 211.89 6.86 211.81 6.86L211.46 6.86L211.46 6.86L210.45 6.86L210.45 7.13C210.45 7.31 210.55 7.36 210.71 7.38C210.80 7.38 210.88 7.38 211.46 7.41L211.46 13.26C210.88 13.29 210.80 13.29 210.71 13.29C210.55 13.30 210.45 13.36 210.45 13.54L210.45 13.82L211.46 13.82L212.11 13.82L212.11 13.82L213.12 13.82L213.12 13.54C213.12 13.36 213.02 13.30 212.86 13.29C212.77 13.29 212.69 13.29 212.11 13.26L212.11 9.30C212.32 8.68 212.60 8.20 212.94 7.88C213.28 7.56 213.71 7.39 214.24 7.39C214.38 7.39 214.51 7.41 214.62 7.42C214.73 7.43 214.84 7.45 214.91 7.48C215.00 7.50 215.04 7.53 215.10 7.55C215.15 7.56 215.19 7.57 215.22 7.57C215.31 7.57 215.35 7.53 215.36 7.46L215.45 7.00C215.29 6.92 215.12 6.85 214.94 6.80ZM225.92 13.29L225.85 13.29L225.74 13.29C225.69 13.29 225.62 13.27 225.53 13.27C225.43 13.27 225.32 13.26 225.19 13.26L225.19 3.63L224.52 3.63L223.51 3.63L223.51 3.91C223.51 4.06 223.61 4.14 223.79 4.16L223.86 4.16C223.89 4.16 223.93 4.17 223.97 4.17L224.18 4.17C224.28 4.17 224.39 4.19 224.52 4.19L224.52 13.26C224.36 13.26 224.22 13.29 224.11 13.29L223.87 13.29L223.79 13.29C223.61 13.30 223.51 13.38 223.51 13.54L223.51 13.82L224.52 13.82L225.19 13.82L226.20 13.82L226.20 13.54C226.20 13.38 226.10 13.30 225.92 13.29ZM241.02 13.54C241.02 13.38 240.94 13.30 240.76 13.29L240.69 13.29L240.59 13.29C240.55 13.29 240.48 13.27 240.39 13.27L240.09 13.27L240.09 3.63L239.43 3.63L238.42 3.63L238.42 3.91C238.42 4.06 238.52 4.14 238.70 4.16L238.77 4.16C238.80 4.16 238.83 4.17 238.87 4.17L239.09 4.17C239.19 4.17 239.30 4.19 239.43 4.19L239.43 7.76C239.18 7.42 238.88 7.17 238.53 7.00C238.18 6.82 237.78 6.73 237.30 6.73C236.81 6.73 236.38 6.83 236.00 7.01C235.62 7.20 235.31 7.46 235.05 7.78C234.78 8.11 234.60 8.50 234.46 8.93C234.32 9.37 234.26 9.84 234.26 10.35C234.26 11.54 234.50 12.43 234.98 13.02C235.45 13.61 236.12 13.90 236.98 13.90C237.50 13.90 237.96 13.79 238.38 13.54C238.80 13.29 239.15 12.95 239.46 12.53L239.53 13.64C239.54 13.76 239.61 13.82 239.72 13.82L240.09 13.82L241.02 13.82L241.02 13.61ZM239.43 12.01C239.13 12.43 238.80 12.77 238.42 13.01C238.04 13.24 237.64 13.37 237.17 13.37C236.46 13.37 235.90 13.13 235.52 12.64C235.14 12.15 234.95 11.38 234.95 10.35C234.95 9.88 234.99 9.48 235.10 9.10C235.21 8.72 235.37 8.39 235.58 8.12C235.79 7.85 236.04 7.63 236.35 7.48C236.66 7.32 237.02 7.25 237.43 7.25C237.83 7.25 238.21 7.34 238.53 7.50C238.85 7.67 239.16 7.95 239.43 8.34ZM261.86 13.93C262.15 13.93 262.43 13.86 262.71 13.75C262.98 13.64 263.20 13.48 263.38 13.29L263.20 12.98C263.16 12.94 263.13 12.92 263.09 12.92C263.06 12.92 263.00 12.94 262.95 12.99C262.89 13.05 262.82 13.09 262.74 13.15C262.65 13.20 262.54 13.26 262.42 13.31C262.29 13.37 262.16 13.38 262.00 13.38C261.86 13.38 261.72 13.36 261.60 13.31C261.49 13.27 261.39 13.20 261.31 13.12C261.23 13.03 261.16 12.92 261.10 12.78C261.04 12.64 261.03 12.49 261.03 12.29L261.03 7.57L263.23 7.57L263.23 7.07L261.03 7.07L261.03 4.41L260.71 4.41C260.65 4.41 260.62 4.44 260.60 4.47C260.57 4.49 260.54 4.54 260.54 4.58L260.37 7.07L259.18 7.15L259.18 7.41C259.18 7.46 259.20 7.49 259.22 7.52C259.25 7.55 259.31 7.57 259.36 7.57L260.36 7.57L260.36 12.33C260.36 12.88 260.48 13.27 260.75 13.54C261.02 13.80 261.38 13.93 261.86 13.93ZM278.82 13.29L278.74 13.29L278.64 13.29C278.60 13.29 278.53 13.27 278.43 13.27C278.33 13.27 278.21 13.26 278.08 13.26L278.08 9.37C278.08 8.96 278.04 8.60 277.94 8.27C277.84 7.95 277.70 7.67 277.51 7.45C277.31 7.22 277.07 7.06 276.78 6.93C276.49 6.80 276.15 6.75 275.77 6.75C275.25 6.75 274.79 6.86 274.37 7.10C273.97 7.34 273.60 7.66 273.28 8.05L273.28 3.64L272.61 3.64L271.60 3.64L271.60 3.91C271.60 4.06 271.70 4.14 271.88 4.16L271.95 4.16C271.98 4.16 272.02 4.17 272.06 4.17L272.27 4.17C272.37 4.17 272.48 4.19 272.61 4.19L272.61 13.26C272.45 13.26 272.31 13.29 272.20 13.29L271.96 13.29L271.88 13.29C271.70 13.30 271.60 13.38 271.60 13.54L271.60 13.82L272.61 13.82L273.28 13.82L274.29 13.82L274.29 13.54C274.29 13.38 274.19 13.30 274.01 13.29L273.94 13.29L273.83 13.29C273.78 13.29 273.71 13.27 273.62 13.27C273.52 13.27 273.41 13.26 273.28 13.26L273.28 8.60C273.59 8.19 273.94 7.87 274.33 7.63C274.72 7.39 275.14 7.28 275.60 7.28C276.22 7.28 276.68 7.46 276.98 7.83C277.27 8.20 277.42 8.71 277.42 9.37L277.42 13.82L278.08 13.82L279.09 13.82L279.09 13.54C279.09 13.38 279.01 13.30 278.82 13.29ZM291.87 6.80C291.69 6.76 291.51 6.73 291.30 6.73C290.75 6.73 290.29 6.89 289.91 7.21C289.53 7.53 289.24 7.98 289.02 8.54L288.96 7.07C288.96 6.99 288.93 6.93 288.90 6.90C288.88 6.87 288.82 6.86 288.74 6.86L288.39 6.86L288.39 6.86L287.38 6.86L287.38 7.13C287.38 7.31 287.48 7.36 287.64 7.38C287.73 7.38 287.81 7.38 288.39 7.41L288.39 13.26C287.81 13.29 287.73 13.29 287.64 13.29C287.48 13.30 287.38 13.36 287.38 13.54L287.38 13.82L288.39 13.82L289.04 13.82L289.04 13.82L290.05 13.82L290.05 13.54C290.05 13.36 289.95 13.30 289.79 13.29C289.70 13.29 289.62 13.29 289.04 13.26L289.04 9.30C289.25 8.68 289.53 8.20 289.87 7.88C290.21 7.56 290.64 7.39 291.17 7.39C291.31 7.39 291.44 7.41 291.55 7.42C291.66 7.43 291.77 7.45 291.84 7.48C291.93 7.50 291.97 7.53 292.03 7.55C292.08 7.56 292.12 7.57 292.15 7.57C292.24 7.57 292.28 7.53 292.29 7.46L292.38 7.00C292.22 6.92 292.05 6.85 291.87 6.80ZM303.37 6.73C302.86 6.73 302.41 6.83 302.02 7.00C301.63 7.17 301.29 7.41 301.01 7.71C300.73 8.02 300.54 8.40 300.40 8.85C300.26 9.30 300.17 9.79 300.17 10.33C300.17 10.88 300.26 11.37 300.40 11.80C300.54 12.24 300.73 12.63 301.01 12.94C301.29 13.24 301.63 13.48 302.02 13.65C302.41 13.82 302.86 13.90 303.37 13.90C303.87 13.90 304.30 13.82 304.70 13.65C305.09 13.48 305.42 13.24 305.69 12.94C305.96 12.63 306.18 12.24 306.32 11.80C306.46 11.37 306.53 10.88 306.53 10.33C306.53 9.79 306.46 9.30 306.32 8.85C306.18 8.40 305.96 8.02 305.69 7.71C305.42 7.41 305.09 7.17 304.70 7.00C304.30 6.83 303.87 6.73 303.37 6.73ZM303.37 13.38C302.95 13.38 302.58 13.31 302.27 13.17C301.97 13.03 301.70 12.82 301.49 12.56C301.28 12.29 301.14 11.97 301.03 11.59C300.92 11.21 300.87 10.79 300.87 10.33C300.87 9.87 300.92 9.45 301.03 9.07C301.14 8.69 301.28 8.37 301.49 8.11C301.70 7.84 301.97 7.62 302.27 7.48C302.58 7.34 302.95 7.27 303.37 7.27C303.79 7.27 304.14 7.34 304.44 7.48C304.75 7.62 305.02 7.84 305.23 8.11C305.44 8.37 305.59 8.69 305.69 9.07C305.79 9.45 305.84 9.87 305.84 10.33C305.84 10.79 305.79 11.21 305.69 11.59C305.59 11.97 305.44 12.29 305.23 12.56C305.02 12.82 304.75 13.03 304.44 13.17C304.14 13.31 303.79 13.38 303.37 13.38ZM321.57 13.29L321.50 13.29L321.38 13.29C321.34 13.29 321.27 13.27 321.17 13.27C321.08 13.27 320.96 13.26 320.84 13.26L320.84 6.85L320.17 6.86L319.16 6.86L319.16 7.13C319.16 7.28 319.26 7.36 319.44 7.38L319.51 7.38C319.54 7.38 319.58 7.39 319.62 7.39L319.83 7.39C319.93 7.39 320.04 7.41 320.17 7.41L320.17 12.08C319.86 12.49 319.49 12.81 319.10 13.05C318.71 13.27 318.29 13.40 317.84 13.40C317.23 13.40 316.76 13.20 316.47 12.84C316.18 12.46 316.02 11.96 316.02 11.30L316.02 6.85L315.35 6.86L314.34 6.86L314.34 7.13C314.34 7.28 314.44 7.36 314.62 7.38L314.69 7.38C314.72 7.38 314.76 7.39 314.80 7.39L315.01 7.39C315.11 7.39 315.22 7.41 315.35 7.41L315.35 11.30C315.35 11.70 315.41 12.07 315.50 12.39C315.60 12.71 315.74 12.99 315.94 13.22C316.13 13.44 316.36 13.62 316.65 13.75C316.95 13.87 317.28 13.93 317.67 13.93C318.19 13.93 318.67 13.80 319.09 13.57C319.51 13.33 319.89 13.01 320.21 12.60L320.26 13.64C320.26 13.76 320.35 13.82 320.47 13.82L320.84 13.82L321.85 13.82L321.85 13.54C321.85 13.38 321.75 13.30 321.57 13.29ZM332.77 6.73C332.39 6.73 332.05 6.79 331.74 6.90C331.44 7.01 331.18 7.15 330.96 7.35C330.74 7.55 330.57 7.77 330.46 8.05C330.34 8.33 330.27 8.64 330.27 8.97C330.27 9.39 330.37 9.76 330.55 10.08C330.74 10.40 330.99 10.65 331.32 10.85C331.18 10.92 331.07 11.00 330.96 11.10C330.85 11.20 330.76 11.28 330.69 11.40C330.62 11.51 330.57 11.61 330.53 11.72C330.48 11.83 330.47 11.93 330.47 12.03C330.47 12.29 330.53 12.49 330.67 12.64C330.81 12.80 330.99 12.89 331.23 12.98C330.81 13.12 330.46 13.33 330.22 13.59C329.98 13.86 329.85 14.18 329.85 14.55C329.85 14.80 329.92 15.05 330.05 15.27C330.18 15.50 330.36 15.69 330.61 15.86C330.86 16.03 331.17 16.17 331.53 16.27C331.90 16.37 332.33 16.42 332.82 16.42C333.30 16.42 333.75 16.35 334.14 16.23C334.53 16.10 334.84 15.95 335.12 15.74C335.40 15.53 335.61 15.29 335.75 15.02C335.89 14.76 335.96 14.49 335.96 14.20C335.96 13.89 335.90 13.64 335.76 13.44C335.62 13.24 335.43 13.12 335.20 13.01C334.98 12.89 334.70 12.82 334.40 12.78C334.11 12.74 333.82 12.71 333.51 12.70C333.20 12.68 332.89 12.66 332.60 12.64C332.30 12.63 332.04 12.61 331.81 12.56C331.59 12.50 331.39 12.43 331.25 12.32C331.11 12.21 331.04 12.05 331.04 11.86C331.04 11.72 331.10 11.56 331.21 11.41C331.32 11.26 331.48 11.13 331.67 11.02C332.00 11.14 332.36 11.19 332.77 11.19C333.13 11.19 333.47 11.14 333.77 11.03C334.08 10.92 334.33 10.78 334.56 10.58C334.78 10.39 334.94 10.16 335.06 9.88C335.19 9.60 335.24 9.31 335.24 8.97C335.24 8.72 335.22 8.48 335.15 8.26C335.08 8.04 334.96 7.84 334.84 7.66L335.90 7.57C336.03 7.56 336.10 7.50 336.10 7.39L336.10 7.15L334.31 7.15C334.10 7.01 333.86 6.92 333.61 6.85C333.35 6.78 333.07 6.73 332.77 6.73ZM335.36 14.29C335.36 14.53 335.29 14.74 335.16 14.94C335.03 15.13 334.85 15.33 334.63 15.47C334.40 15.61 334.14 15.72 333.83 15.81C333.52 15.89 333.19 15.92 332.84 15.92C332.46 15.92 332.12 15.88 331.83 15.81C331.53 15.74 331.27 15.62 331.07 15.50C330.88 15.37 330.72 15.22 330.61 15.05C330.50 14.88 330.46 14.69 330.46 14.48C330.46 14.31 330.50 14.17 330.55 14.03C330.61 13.89 330.69 13.76 330.81 13.65C330.92 13.54 331.03 13.43 331.18 13.34C331.34 13.26 331.51 13.17 331.69 13.10C331.93 13.15 332.18 13.17 332.46 13.19C332.74 13.20 332.99 13.22 333.27 13.23C333.55 13.24 333.80 13.26 334.05 13.29C334.31 13.31 334.53 13.38 334.73 13.45C334.92 13.52 335.06 13.62 335.17 13.76C335.29 13.90 335.36 14.07 335.36 14.29ZM332.77 10.74C332.47 10.74 332.22 10.70 331.98 10.61C331.74 10.53 331.55 10.40 331.38 10.25C331.21 10.09 331.10 9.91 331.02 9.70C330.93 9.49 330.89 9.25 330.89 8.99C330.89 8.72 330.93 8.48 331.02 8.26C331.10 8.04 331.21 7.87 331.38 7.71C331.55 7.56 331.74 7.43 331.98 7.35C332.22 7.27 332.47 7.22 332.77 7.22C333.06 7.22 333.33 7.27 333.55 7.35C333.77 7.43 333.97 7.56 334.14 7.71C334.31 7.87 334.43 8.04 334.52 8.26C334.60 8.48 334.64 8.71 334.64 8.97C334.64 9.24 334.60 9.49 334.52 9.70C334.43 9.91 334.31 10.09 334.15 10.25C334.00 10.40 333.80 10.53 333.56 10.61C333.33 10.70 333.06 10.74 332.77 10.74ZM351.57 13.29L351.48 13.29L351.39 13.29C351.34 13.29 351.27 13.27 351.18 13.27C351.08 13.27 350.95 13.26 350.83 13.26L350.83 9.37C350.83 8.96 350.78 8.60 350.69 8.27C350.59 7.95 350.45 7.67 350.25 7.45C350.06 7.22 349.82 7.06 349.52 6.93C349.23 6.80 348.89 6.75 348.52 6.75C348.00 6.75 347.54 6.86 347.12 7.10C346.71 7.34 346.35 7.66 346.02 8.05L346.02 3.64L345.35 3.64L344.34 3.64L344.34 3.91C344.34 4.06 344.44 4.14 344.62 4.16L344.69 4.16C344.72 4.16 344.76 4.17 344.81 4.17L345.02 4.17C345.11 4.17 345.23 4.19 345.35 4.19L345.35 13.26C345.20 13.26 345.06 13.29 344.95 13.29L344.71 13.29L344.62 13.29C344.44 13.30 344.34 13.38 344.34 13.54L344.34 13.82L345.35 13.82L346.02 13.82L347.03 13.82L347.03 13.54C347.03 13.38 346.93 13.30 346.75 13.29L346.68 13.29L346.57 13.29C346.53 13.29 346.46 13.27 346.36 13.27C346.26 13.27 346.15 13.26 346.02 13.26L346.02 8.60C346.33 8.19 346.68 7.87 347.07 7.63C347.47 7.39 347.89 7.28 348.35 7.28C348.96 7.28 349.43 7.46 349.72 7.83C350.01 8.20 350.17 8.71 350.17 9.37L350.17 13.82L350.83 13.82L351.83 13.82L351.83 13.54C351.83 13.38 351.75 13.30 351.57 13.29ZM372.68 13.93C372.97 13.93 373.25 13.86 373.53 13.75C373.80 13.64 374.02 13.48 374.21 13.29L374.02 12.98C373.98 12.94 373.95 12.92 373.91 12.92C373.88 12.92 373.83 12.94 373.77 12.99C373.72 13.05 373.65 13.09 373.56 13.15C373.48 13.20 373.37 13.26 373.24 13.31C373.11 13.37 372.99 13.38 372.82 13.38C372.68 13.38 372.54 13.36 372.43 13.31C372.32 13.27 372.22 13.20 372.13 13.12C372.05 13.03 371.98 12.92 371.92 12.78C371.87 12.64 371.85 12.49 371.85 12.29L371.85 7.57L374.05 7.57L374.05 7.07L371.85 7.07L371.85 4.41L371.53 4.41C371.48 4.41 371.45 4.44 371.42 4.47C371.39 4.49 371.36 4.54 371.36 4.58L371.20 7.07L370.01 7.15L370.01 7.41C370.01 7.46 370.02 7.49 370.05 7.52C370.08 7.55 370.13 7.57 370.19 7.57L371.18 7.57L371.18 12.33C371.18 12.88 371.31 13.27 371.57 13.54C371.84 13.80 372.20 13.93 372.68 13.93ZM385.42 6.73C384.93 6.73 384.48 6.83 384.09 7.00C383.70 7.17 383.38 7.41 383.11 7.71C382.84 8.02 382.63 8.39 382.49 8.81C382.35 9.23 382.27 9.69 382.27 10.19C382.27 10.78 382.35 11.31 382.51 11.77C382.66 12.24 382.87 12.61 383.15 12.94C383.43 13.26 383.77 13.50 384.16 13.66C384.55 13.83 384.99 13.90 385.46 13.90C385.73 13.90 385.99 13.89 386.25 13.83C386.50 13.78 386.75 13.71 386.97 13.62C387.20 13.54 387.41 13.44 387.59 13.31C387.77 13.19 387.93 13.06 388.04 12.92L387.86 12.70C387.83 12.66 387.77 12.63 387.72 12.63C387.67 12.63 387.59 12.66 387.49 12.74C387.39 12.82 387.25 12.91 387.07 13.01C386.90 13.10 386.68 13.17 386.43 13.26C386.18 13.34 385.87 13.38 385.52 13.38C385.13 13.38 384.78 13.31 384.45 13.17C384.13 13.03 383.87 12.84 383.64 12.57C383.42 12.31 383.25 11.97 383.12 11.58C383.00 11.19 382.94 10.71 382.94 10.19L382.94 10.07L387.97 10.07C388.04 10.07 388.08 10.05 388.11 10.01C388.14 9.97 388.16 9.90 388.16 9.80C388.16 9.31 388.09 8.88 387.95 8.50C387.81 8.12 387.63 7.78 387.38 7.53C387.14 7.28 386.85 7.08 386.51 6.94C386.18 6.80 385.81 6.73 385.42 6.73ZM385.43 7.24C385.76 7.24 386.04 7.29 386.30 7.41C386.57 7.52 386.79 7.67 386.97 7.88C387.16 8.09 387.31 8.33 387.41 8.62C387.51 8.92 387.56 9.25 387.56 9.63L382.97 9.63C383.01 9.27 383.10 8.93 383.22 8.64C383.35 8.34 383.52 8.09 383.73 7.88C383.94 7.67 384.19 7.52 384.47 7.41C384.75 7.29 385.07 7.24 385.43 7.24ZM401.42 12.70C401.39 12.66 401.34 12.63 401.28 12.63C401.23 12.63 401.17 12.66 401.09 12.74C401.00 12.82 400.88 12.91 400.74 13.01C400.60 13.10 400.40 13.17 400.18 13.26C399.95 13.34 399.66 13.38 399.32 13.38C398.96 13.38 398.62 13.31 398.33 13.17C398.03 13.03 397.78 12.85 397.57 12.59C397.36 12.33 397.19 12.01 397.08 11.63C396.97 11.26 396.91 10.82 396.91 10.33C396.91 9.86 396.97 9.44 397.08 9.06C397.19 8.68 397.36 8.36 397.57 8.09C397.78 7.83 398.05 7.62 398.36 7.48C398.66 7.34 399.01 7.27 399.42 7.27C399.77 7.27 400.16 7.35 400.61 7.50C400.62 7.69 400.62 7.87 400.64 8.04C400.65 8.20 400.67 8.33 400.68 8.43C400.69 8.53 400.69 8.58 400.69 8.60C400.71 8.82 400.81 8.93 401.00 8.93L401.34 8.93L401.34 7.18L400.97 7.07C400.74 7.00 400.44 6.92 400.12 6.85C399.80 6.78 399.55 6.75 399.38 6.75C398.87 6.75 398.44 6.82 398.05 7.00C397.66 7.18 397.32 7.42 397.05 7.74C396.79 8.06 396.59 8.44 396.45 8.88C396.31 9.31 396.23 9.80 396.23 10.33C396.23 10.89 396.30 11.40 396.45 11.84C396.59 12.29 396.80 12.66 397.07 12.96C397.33 13.27 397.66 13.51 398.02 13.66C398.38 13.83 398.78 13.92 399.22 13.92C399.49 13.92 399.74 13.89 399.98 13.83C400.22 13.78 400.44 13.72 400.65 13.64C400.86 13.55 401.03 13.44 401.20 13.31C401.37 13.19 401.49 13.06 401.60 12.92ZM417.03 13.29L416.95 13.29L416.85 13.29C416.81 13.29 416.74 13.27 416.64 13.27C416.54 13.27 416.42 13.26 416.29 13.26L416.29 9.37C416.29 8.96 416.25 8.60 416.15 8.27C416.05 7.95 415.91 7.67 415.72 7.45C415.52 7.22 415.28 7.06 414.99 6.93C414.69 6.80 414.36 6.75 413.98 6.75C413.46 6.75 413 6.86 412.58 7.10C412.17 7.34 411.81 7.66 411.49 8.05L411.49 3.64L410.82 3.64L409.81 3.64L409.81 3.91C409.81 4.06 409.91 4.14 410.09 4.16L410.16 4.16C410.19 4.16 410.23 4.17 410.27 4.17L410.48 4.17C410.58 4.17 410.69 4.19 410.82 4.19L410.82 13.26C410.66 13.26 410.52 13.29 410.41 13.29L410.17 13.29L410.09 13.29C409.91 13.30 409.81 13.38 409.81 13.54L409.81 13.82L410.82 13.82L411.49 13.82L412.50 13.82L412.50 13.54C412.50 13.38 412.40 13.30 412.22 13.29L412.15 13.29L412.03 13.29C411.99 13.29 411.92 13.27 411.82 13.27C411.73 13.27 411.61 13.26 411.49 13.26L411.49 8.60C411.80 8.19 412.15 7.87 412.54 7.63C412.93 7.39 413.35 7.28 413.81 7.28C414.43 7.28 414.89 7.46 415.18 7.83C415.48 8.20 415.63 8.71 415.63 9.37L415.63 13.82L416.29 13.82L417.30 13.82L417.30 13.54C417.30 13.38 417.21 13.30 417.03 13.29ZM432.80 13.29L432.73 13.29L432.61 13.29C432.57 13.29 432.50 13.27 432.40 13.27C432.31 13.27 432.19 13.26 432.07 13.26L432.07 9.37C432.07 8.96 432.01 8.60 431.91 8.27C431.82 7.95 431.68 7.67 431.48 7.45C431.28 7.22 431.05 7.06 430.75 6.93C430.46 6.80 430.12 6.75 429.74 6.75C429.23 6.75 428.75 6.87 428.33 7.11C427.91 7.36 427.55 7.67 427.22 8.08L427.17 7.03C427.15 6.92 427.08 6.86 426.96 6.86L426.59 6.86L425.59 6.86L425.59 7.13C425.59 7.28 425.67 7.36 425.85 7.38L425.94 7.38C425.96 7.38 425.99 7.39 426.03 7.39L426.24 7.39C426.34 7.39 426.47 7.41 426.59 7.41L426.59 13.26C426.43 13.26 426.29 13.29 426.17 13.29L425.95 13.29L425.85 13.29C425.67 13.30 425.59 13.38 425.59 13.54L425.59 13.82L426.59 13.82L427.25 13.82L428.26 13.82L428.26 13.54C428.26 13.38 428.18 13.30 427.99 13.29L427.91 13.29L427.81 13.29C427.77 13.29 427.70 13.27 427.60 13.27C427.50 13.27 427.38 13.26 427.25 13.26L427.25 8.60C427.56 8.19 427.91 7.87 428.30 7.63C428.69 7.39 429.11 7.28 429.58 7.28C430.19 7.28 430.65 7.46 430.95 7.83C431.24 8.20 431.40 8.71 431.40 9.37L431.40 13.82L432.07 13.82L433.08 13.82L433.08 13.54C433.08 13.38 432.98 13.30 432.80 13.29ZM444.39 6.73C443.88 6.73 443.44 6.83 443.04 7.00C442.65 7.17 442.32 7.41 442.04 7.71C441.76 8.02 441.56 8.40 441.42 8.85C441.28 9.30 441.20 9.79 441.20 10.33C441.20 10.88 441.28 11.37 441.42 11.80C441.56 12.24 441.76 12.63 442.04 12.94C442.32 13.24 442.65 13.48 443.04 13.65C443.44 13.82 443.88 13.90 444.39 13.90C444.89 13.90 445.33 13.82 445.72 13.65C446.11 13.48 446.45 13.24 446.71 12.94C446.98 12.63 447.20 12.24 447.34 11.80C447.48 11.37 447.55 10.88 447.55 10.33C447.55 9.79 447.48 9.30 447.34 8.85C447.20 8.40 446.98 8.02 446.71 7.71C446.45 7.41 446.11 7.17 445.72 7.00C445.33 6.83 444.89 6.73 444.39 6.73ZM444.39 13.38C443.97 13.38 443.60 13.31 443.30 13.17C442.99 13.03 442.72 12.82 442.51 12.56C442.30 12.29 442.16 11.97 442.05 11.59C441.94 11.21 441.90 10.79 441.90 10.33C441.90 9.87 441.94 9.45 442.05 9.07C442.16 8.69 442.30 8.37 442.51 8.11C442.72 7.84 442.99 7.62 443.30 7.48C443.60 7.34 443.97 7.27 444.39 7.27C444.81 7.27 445.16 7.34 445.47 7.48C445.77 7.62 446.04 7.84 446.25 8.11C446.46 8.37 446.61 8.69 446.71 9.07C446.81 9.45 446.87 9.87 446.87 10.33C446.87 10.79 446.81 11.21 446.71 11.59C446.61 11.97 446.46 12.29 446.25 12.56C446.04 12.82 445.77 13.03 445.47 13.17C445.16 13.31 444.81 13.38 444.39 13.38ZM458.18 13.29L458.11 13.29L458.00 13.29C457.95 13.29 457.88 13.27 457.79 13.27C457.69 13.27 457.58 13.26 457.45 13.26L457.45 3.63L456.78 3.63L455.77 3.63L455.77 3.91C455.77 4.06 455.87 4.14 456.05 4.16L456.12 4.16C456.15 4.16 456.19 4.17 456.23 4.17L456.44 4.17C456.54 4.17 456.65 4.19 456.78 4.19L456.78 13.26C456.62 13.26 456.48 13.29 456.37 13.29L456.13 13.29L456.05 13.29C455.87 13.30 455.77 13.38 455.77 13.54L455.77 13.82L456.78 13.82L457.45 13.82L458.46 13.82L458.46 13.54C458.46 13.38 458.36 13.30 458.18 13.29ZM469.71 6.73C469.21 6.73 468.76 6.83 468.37 7.00C467.98 7.17 467.64 7.41 467.36 7.71C467.08 8.02 466.89 8.40 466.75 8.85C466.61 9.30 466.52 9.79 466.52 10.33C466.52 10.88 466.61 11.37 466.75 11.80C466.89 12.24 467.08 12.63 467.36 12.94C467.64 13.24 467.98 13.48 468.37 13.65C468.76 13.82 469.21 13.90 469.71 13.90C470.22 13.90 470.65 13.82 471.04 13.65C471.44 13.48 471.77 13.24 472.04 12.94C472.30 12.63 472.53 12.24 472.67 11.80C472.81 11.37 472.88 10.88 472.88 10.33C472.88 9.79 472.81 9.30 472.67 8.85C472.53 8.40 472.30 8.02 472.04 7.71C471.77 7.41 471.44 7.17 471.04 7.00C470.65 6.83 470.22 6.73 469.71 6.73ZM469.71 13.38C469.29 13.38 468.93 13.31 468.62 13.17C468.31 13.03 468.05 12.82 467.84 12.56C467.63 12.29 467.49 11.97 467.38 11.59C467.26 11.21 467.22 10.79 467.22 10.33C467.22 9.87 467.26 9.45 467.38 9.07C467.49 8.69 467.63 8.37 467.84 8.11C468.05 7.84 468.31 7.62 468.62 7.48C468.93 7.34 469.29 7.27 469.71 7.27C470.13 7.27 470.48 7.34 470.79 7.48C471.10 7.62 471.37 7.84 471.58 8.11C471.79 8.37 471.94 8.69 472.04 9.07C472.14 9.45 472.19 9.87 472.19 10.33C472.19 10.79 472.14 11.21 472.04 11.59C471.94 11.97 471.79 12.29 471.58 12.56C471.37 12.82 471.10 13.03 470.79 13.17C470.48 13.31 470.13 13.38 469.71 13.38ZM483.74 6.73C483.36 6.73 483.03 6.79 482.72 6.90C482.41 7.01 482.16 7.15 481.94 7.35C481.71 7.55 481.54 7.77 481.43 8.05C481.32 8.33 481.25 8.64 481.25 8.97C481.25 9.39 481.35 9.76 481.53 10.08C481.71 10.40 481.96 10.65 482.30 10.85C482.16 10.92 482.05 11.00 481.94 11.10C481.82 11.20 481.74 11.28 481.67 11.40C481.60 11.51 481.54 11.61 481.50 11.72C481.46 11.83 481.45 11.93 481.45 12.03C481.45 12.29 481.50 12.49 481.64 12.64C481.78 12.80 481.96 12.89 482.20 12.98C481.78 13.12 481.43 13.33 481.19 13.59C480.96 13.86 480.83 14.18 480.83 14.55C480.83 14.80 480.90 15.05 481.03 15.27C481.15 15.50 481.33 15.69 481.59 15.86C481.84 16.03 482.15 16.17 482.51 16.27C482.87 16.37 483.31 16.42 483.80 16.42C484.27 16.42 484.72 16.35 485.11 16.23C485.51 16.10 485.81 15.95 486.09 15.74C486.37 15.53 486.58 15.29 486.72 15.02C486.86 14.76 486.93 14.49 486.93 14.20C486.93 13.89 486.88 13.64 486.74 13.44C486.60 13.24 486.40 13.12 486.18 13.01C485.95 12.89 485.67 12.82 485.38 12.78C485.09 12.74 484.79 12.71 484.48 12.70C484.18 12.68 483.87 12.66 483.57 12.64C483.28 12.63 483.01 12.61 482.79 12.56C482.57 12.50 482.37 12.43 482.23 12.32C482.09 12.21 482.02 12.05 482.02 11.86C482.02 11.72 482.08 11.56 482.19 11.41C482.30 11.26 482.45 11.13 482.65 11.02C482.97 11.14 483.34 11.19 483.74 11.19C484.11 11.19 484.44 11.14 484.75 11.03C485.06 10.92 485.31 10.78 485.53 10.58C485.76 10.39 485.91 10.16 486.04 9.88C486.16 9.60 486.22 9.31 486.22 8.97C486.22 8.72 486.19 8.48 486.12 8.26C486.05 8.04 485.94 7.84 485.81 7.66L486.88 7.57C487.00 7.56 487.07 7.50 487.07 7.39L487.07 7.15L485.28 7.15C485.07 7.01 484.83 6.92 484.58 6.85C484.33 6.78 484.05 6.73 483.74 6.73ZM486.33 14.29C486.33 14.53 486.26 14.74 486.14 14.94C486.01 15.13 485.83 15.33 485.60 15.47C485.38 15.61 485.11 15.72 484.81 15.81C484.50 15.89 484.16 15.92 483.81 15.92C483.43 15.92 483.10 15.88 482.80 15.81C482.51 15.74 482.24 15.62 482.05 15.50C481.85 15.37 481.70 15.22 481.59 15.05C481.47 14.88 481.43 14.69 481.43 14.48C481.43 14.31 481.47 14.17 481.53 14.03C481.59 13.89 481.67 13.76 481.78 13.65C481.89 13.54 482.01 13.43 482.16 13.34C482.31 13.26 482.48 13.17 482.66 13.10C482.90 13.15 483.15 13.17 483.43 13.19C483.71 13.20 483.97 13.22 484.25 13.23C484.53 13.24 484.78 13.26 485.03 13.29C485.28 13.31 485.51 13.38 485.70 13.45C485.90 13.52 486.04 13.62 486.15 13.76C486.26 13.90 486.33 14.07 486.33 14.29ZM483.74 10.74C483.45 10.74 483.20 10.70 482.96 10.61C482.72 10.53 482.52 10.40 482.36 10.25C482.19 10.09 482.08 9.91 481.99 9.70C481.91 9.49 481.87 9.25 481.87 8.99C481.87 8.72 481.91 8.48 481.99 8.26C482.08 8.04 482.19 7.87 482.36 7.71C482.52 7.56 482.72 7.43 482.96 7.35C483.20 7.27 483.45 7.22 483.74 7.22C484.04 7.22 484.30 7.27 484.53 7.35C484.75 7.43 484.95 7.56 485.11 7.71C485.28 7.87 485.41 8.04 485.49 8.26C485.58 8.48 485.62 8.71 485.62 8.97C485.62 9.24 485.58 9.49 485.49 9.70C485.41 9.91 485.28 10.09 485.13 10.25C484.97 10.40 484.78 10.53 484.54 10.61C484.30 10.70 484.04 10.74 483.74 10.74ZM501.84 6.86L501.33 6.86L499.93 6.86L499.93 7.13C499.93 7.28 500.02 7.36 500.21 7.38L500.28 7.38C500.30 7.38 500.33 7.39 500.37 7.39L500.58 7.39C500.68 7.39 500.79 7.41 500.92 7.41L498.78 12.45L498.69 12.66C498.67 12.73 498.65 12.80 498.62 12.87C498.61 12.80 498.57 12.73 498.55 12.66C498.53 12.59 498.51 12.52 498.48 12.45L496.31 7.41C496.47 7.41 496.61 7.39 496.72 7.39C496.83 7.39 496.92 7.38 496.94 7.38L497.03 7.38C497.21 7.36 497.31 7.28 497.31 7.13L497.31 6.86L495.89 6.86L495.89 6.86L495.33 6.86L494.87 6.86L494.87 7.13C494.87 7.28 494.97 7.36 495.15 7.38C495.15 7.38 495.29 7.38 495.57 7.39L498.29 13.57L497.06 16.28L497.53 16.28C497.62 16.28 497.69 16.25 497.73 16.21C497.77 16.17 497.81 16.13 497.84 16.06L501.61 7.39L501.86 7.39C501.94 7.39 501.98 7.38 502.01 7.38L502.08 7.38C502.26 7.36 502.36 7.28 502.36 7.13L502.36 6.86ZM509.84 13.29C509.84 13.47 509.89 13.61 510.02 13.73C510.15 13.86 510.30 13.93 510.48 13.93C510.57 13.93 510.65 13.90 510.73 13.87C510.82 13.85 510.87 13.79 510.93 13.73C510.99 13.68 511.04 13.62 511.07 13.54C511.10 13.45 511.13 13.38 511.13 13.29C511.13 13.20 511.10 13.12 511.07 13.03C511.04 12.95 510.99 12.88 510.93 12.82C510.87 12.77 510.82 12.71 510.73 12.68C510.65 12.66 510.57 12.63 510.48 12.63C510.38 12.63 510.30 12.66 510.22 12.68C510.13 12.71 510.08 12.77 510.02 12.82C509.96 12.88 509.91 12.95 509.88 13.03C509.85 13.12 509.84 13.20 509.84 13.29ZM520.06 13.29C520.06 13.47 520.11 13.61 520.24 13.73C520.37 13.86 520.52 13.93 520.70 13.93C520.79 13.93 520.87 13.90 520.95 13.87C521.04 13.85 521.09 13.79 521.15 13.73C521.21 13.68 521.26 13.62 521.29 13.54C521.32 13.45 521.35 13.38 521.35 13.29C521.35 13.20 521.32 13.12 521.29 13.03C521.26 12.95 521.21 12.88 521.15 12.82C521.09 12.77 521.04 12.71 520.95 12.68C520.87 12.66 520.79 12.63 520.70 12.63C520.60 12.63 520.52 12.66 520.44 12.68C520.35 12.71 520.30 12.77 520.24 12.82C520.18 12.88 520.13 12.95 520.10 13.03C520.07 13.12 520.06 13.20 520.06 13.29ZM530.28 13.29C530.28 13.47 530.33 13.61 530.46 13.73C530.59 13.86 530.74 13.93 530.92 13.93C531.01 13.93 531.09 13.90 531.17 13.87C531.26 13.85 531.31 13.79 531.37 13.73C531.43 13.68 531.48 13.62 531.51 13.54C531.54 13.45 531.57 13.38 531.57 13.29C531.57 13.20 531.54 13.12 531.51 13.03C531.48 12.95 531.43 12.88 531.37 12.82C531.31 12.77 531.26 12.71 531.17 12.68C531.09 12.66 531.01 12.63 530.92 12.63C530.82 12.63 530.74 12.66 530.66 12.68C530.57 12.71 530.52 12.77 530.46 12.82C530.40 12.88 530.35 12.95 530.32 13.03C530.29 13.12 530.28 13.20 530.28 13.29Z"></path></g></svg>