<svg data-v-423bf9ae="" xmlns="http://www.w3.org/2000/svg" viewBox="0 0 425.1211342151286 60" class="font"><!----><!----><!----><g data-v-423bf9ae="" id="2e12c455-b25e-4a53-a776-a8aa66c27563" fill="black" transform="matrix(6.322444195736564,0,0,6.322444195736564,-0.8851427393019549,-34.45731918401658)"><path d="M5.36 11.80L5.36 14.64L5.36 14.64Q5.21 14.69 4.89 14.73L4.89 14.73L4.89 14.73Q4.56 14.77 4.26 14.77L4.26 14.77L4.26 14.77Q3.61 14.77 3.29 14.55L3.29 14.55L3.29 14.55Q2.97 14.34 2.97 13.64L2.97 13.64L2.97 11.75L2.97 11.75Q2.62 11.23 2.21 10.60L2.21 10.60L2.21 10.60Q1.81 9.97 1.41 9.31L1.41 9.31L1.41 9.31Q1.02 8.65 0.69 8.02L0.69 8.02L0.69 8.02Q0.35 7.38 0.14 6.85L0.14 6.85L0.14 6.85Q0.32 6.59 0.64 6.38L0.64 6.38L0.64 6.38Q0.95 6.17 1.41 6.17L1.41 6.17L1.41 6.17Q1.96 6.17 2.30 6.40L2.30 6.40L2.30 6.40Q2.65 6.62 2.95 7.24L2.95 7.24L4.12 9.58L4.20 9.58L4.20 9.58Q4.40 9.14 4.54 8.79L4.54 8.79L4.54 8.79Q4.69 8.43 4.83 8.07L4.83 8.07L4.83 8.07Q4.97 7.71 5.12 7.33L5.12 7.33L5.12 7.33Q5.28 6.94 5.47 6.44L5.47 6.44L5.47 6.44Q5.73 6.31 6.03 6.24L6.03 6.24L6.03 6.24Q6.34 6.17 6.62 6.17L6.62 6.17L6.62 6.17Q7.11 6.17 7.46 6.43L7.46 6.43L7.46 6.43Q7.80 6.69 7.80 7.21L7.80 7.21L7.80 7.21Q7.80 7.38 7.73 7.62L7.73 7.62L7.73 7.62Q7.66 7.85 7.41 8.34L7.41 8.34L7.41 8.34Q7.15 8.82 6.67 9.65L6.67 9.65L6.67 9.65Q6.19 10.47 5.36 11.80L5.36 11.80ZM12.36 14.92L12.36 14.92L12.36 14.92Q11.54 14.92 10.83 14.69L10.83 14.69L10.83 14.69Q10.12 14.46 9.60 14.00L9.60 14.00L9.60 14.00Q9.07 13.54 8.77 12.84L8.77 12.84L8.77 12.84Q8.47 12.14 8.47 11.20L8.47 11.20L8.47 11.20Q8.47 10.28 8.77 9.61L8.77 9.61L8.77 9.61Q9.07 8.95 9.56 8.52L9.56 8.52L9.56 8.52Q10.05 8.09 10.68 7.89L10.68 7.89L10.68 7.89Q11.31 7.69 11.97 7.69L11.97 7.69L11.97 7.69Q12.71 7.69 13.32 7.91L13.32 7.91L13.32 7.91Q13.93 8.13 14.37 8.53L14.37 8.53L14.37 8.53Q14.81 8.92 15.06 9.46L15.06 9.46L15.06 9.46Q15.30 10.01 15.30 10.65L15.30 10.65L15.30 10.65Q15.30 11.13 15.04 11.38L15.04 11.38L15.04 11.38Q14.77 11.63 14.29 11.70L14.29 11.70L10.84 12.22L10.84 12.22Q10.99 12.68 11.47 12.92L11.47 12.92L11.47 12.92Q11.94 13.15 12.56 13.15L12.56 13.15L12.56 13.15Q13.13 13.15 13.64 13.00L13.64 13.00L13.64 13.00Q14.15 12.85 14.48 12.66L14.48 12.66L14.48 12.66Q14.70 12.80 14.85 13.05L14.85 13.05L14.85 13.05Q15.01 13.30 15.01 13.58L15.01 13.58L15.01 13.58Q15.01 14.21 14.42 14.52L14.42 14.52L14.42 14.52Q13.97 14.76 13.41 14.84L13.41 14.84L13.41 14.84Q12.85 14.92 12.36 14.92ZM11.97 9.42L11.97 9.42L11.97 9.42Q11.63 9.42 11.39 9.53L11.39 9.53L11.39 9.53Q11.14 9.65 10.99 9.82L10.99 9.82L10.99 9.82Q10.84 10.00 10.76 10.21L10.76 10.21L10.76 10.21Q10.68 10.43 10.67 10.65L10.67 10.65L13.06 10.26L13.06 10.26Q13.02 9.98 12.75 9.70L12.75 9.70L12.75 9.70Q12.49 9.42 11.97 9.42ZM21.69 14.74L17.93 14.74L17.93 14.74Q17.33 14.74 16.98 14.39L16.98 14.39L16.98 14.39Q16.63 14.04 16.63 13.44L16.63 13.44L16.63 6.20L16.63 6.20Q16.79 6.17 17.12 6.13L17.12 6.13L17.12 6.13Q17.46 6.08 17.77 6.08L17.77 6.08L17.77 6.08Q18.09 6.08 18.33 6.13L18.33 6.13L18.33 6.13Q18.58 6.17 18.75 6.30L18.75 6.30L18.75 6.30Q18.91 6.43 19.00 6.65L19.00 6.65L19.00 6.65Q19.08 6.87 19.08 7.24L19.08 7.24L19.08 12.77L22.29 12.77L22.29 12.77Q22.39 12.92 22.47 13.18L22.47 13.18L22.47 13.18Q22.55 13.44 22.55 13.72L22.55 13.72L22.55 13.72Q22.55 14.28 22.32 14.51L22.32 14.51L22.32 14.51Q22.08 14.74 21.69 14.74L21.69 14.74ZM23.63 12.00L23.63 7.99L23.63 7.99Q23.77 7.95 24.07 7.91L24.07 7.91L24.07 7.91Q24.37 7.87 24.70 7.87L24.70 7.87L24.70 7.87Q25.00 7.87 25.25 7.91L25.25 7.91L25.25 7.91Q25.49 7.95 25.66 8.08L25.66 8.08L25.66 8.08Q25.83 8.20 25.92 8.42L25.92 8.42L25.92 8.42Q26.01 8.64 26.01 8.99L26.01 8.99L26.01 12.00L26.01 12.00Q26.01 12.57 26.29 12.82L26.29 12.82L26.29 12.82Q26.57 13.06 27.10 13.06L27.10 13.06L27.10 13.06Q27.43 13.06 27.63 13.01L27.63 13.01L27.63 13.01Q27.83 12.95 27.94 12.89L27.94 12.89L27.94 7.99L27.94 7.99Q28.08 7.95 28.38 7.91L28.38 7.91L28.38 7.91Q28.69 7.87 29.01 7.87L29.01 7.87L29.01 7.87Q29.32 7.87 29.56 7.91L29.56 7.91L29.56 7.91Q29.81 7.95 29.97 8.08L29.97 8.08L29.97 8.08Q30.14 8.20 30.23 8.42L30.23 8.42L30.23 8.42Q30.32 8.64 30.32 8.99L30.32 8.99L30.32 13.24L30.32 13.24Q30.32 13.94 29.74 14.29L29.74 14.29L29.74 14.29Q29.25 14.60 28.57 14.76L28.57 14.76L28.57 14.76Q27.89 14.92 27.09 14.92L27.09 14.92L27.09 14.92Q26.33 14.92 25.70 14.76L25.70 14.76L25.70 14.76Q25.06 14.59 24.60 14.24L24.60 14.24L24.60 14.24Q24.14 13.89 23.88 13.34L23.88 13.34L23.88 13.34Q23.63 12.78 23.63 12.00L23.63 12.00ZM36.47 8.18L34.37 8.18L34.37 8.18Q34.27 8.02 34.19 7.76L34.19 7.76L34.19 7.76Q34.10 7.49 34.10 7.20L34.10 7.20L34.10 7.20Q34.10 6.65 34.35 6.41L34.35 6.41L34.35 6.41Q34.59 6.17 34.99 6.17L34.99 6.17L41.09 6.17L41.09 6.17Q41.19 6.33 41.27 6.59L41.27 6.59L41.27 6.59Q41.36 6.86 41.36 7.15L41.36 7.15L41.36 7.15Q41.36 7.70 41.11 7.94L41.11 7.94L41.11 7.94Q40.87 8.18 40.47 8.18L40.47 8.18L38.92 8.18L38.92 14.64L38.92 14.64Q38.77 14.69 38.44 14.73L38.44 14.73L38.44 14.73Q38.11 14.77 37.79 14.77L37.79 14.77L37.79 14.77Q37.46 14.77 37.22 14.72L37.22 14.72L37.22 14.72Q36.97 14.67 36.81 14.55L36.81 14.55L36.81 14.55Q36.64 14.42 36.55 14.20L36.55 14.20L36.55 14.20Q36.47 13.97 36.47 13.61L36.47 13.61L36.47 8.18ZM45.96 14.92L45.96 14.92L45.96 14.92Q45.14 14.92 44.43 14.69L44.43 14.69L44.43 14.69Q43.72 14.46 43.20 14.00L43.20 14.00L43.20 14.00Q42.67 13.54 42.37 12.84L42.37 12.84L42.37 12.84Q42.07 12.14 42.07 11.20L42.07 11.20L42.07 11.20Q42.07 10.28 42.37 9.61L42.37 9.61L42.37 9.61Q42.67 8.95 43.16 8.52L43.16 8.52L43.16 8.52Q43.65 8.09 44.28 7.89L44.28 7.89L44.28 7.89Q44.91 7.69 45.57 7.69L45.57 7.69L45.57 7.69Q46.31 7.69 46.92 7.91L46.92 7.91L46.92 7.91Q47.53 8.13 47.97 8.53L47.97 8.53L47.97 8.53Q48.41 8.92 48.66 9.46L48.66 9.46L48.66 9.46Q48.90 10.01 48.90 10.65L48.90 10.65L48.90 10.65Q48.90 11.13 48.64 11.38L48.64 11.38L48.64 11.38Q48.37 11.63 47.89 11.70L47.89 11.70L44.44 12.22L44.44 12.22Q44.59 12.68 45.07 12.92L45.07 12.92L45.07 12.92Q45.54 13.15 46.16 13.15L46.16 13.15L46.16 13.15Q46.73 13.15 47.24 13.00L47.24 13.00L47.24 13.00Q47.75 12.85 48.08 12.66L48.08 12.66L48.08 12.66Q48.30 12.80 48.45 13.05L48.45 13.05L48.45 13.05Q48.61 13.30 48.61 13.58L48.61 13.58L48.61 13.58Q48.61 14.21 48.02 14.52L48.02 14.52L48.02 14.52Q47.57 14.76 47.01 14.84L47.01 14.84L47.01 14.84Q46.45 14.92 45.96 14.92ZM45.57 9.42L45.57 9.42L45.57 9.42Q45.23 9.42 44.99 9.53L44.99 9.53L44.99 9.53Q44.74 9.65 44.59 9.82L44.59 9.82L44.59 9.82Q44.44 10.00 44.36 10.21L44.36 10.21L44.36 10.21Q44.28 10.43 44.27 10.65L44.27 10.65L46.66 10.26L46.66 10.26Q46.62 9.98 46.35 9.70L46.35 9.70L46.35 9.70Q46.09 9.42 45.57 9.42ZM53.89 9.56L53.89 9.56L53.89 9.56Q53.54 9.56 53.22 9.67L53.22 9.67L53.22 9.67Q52.91 9.79 52.67 10.00L52.67 10.00L52.67 10.00Q52.44 10.22 52.30 10.54L52.30 10.54L52.30 10.54Q52.16 10.86 52.16 11.30L52.16 11.30L52.16 11.30Q52.16 12.17 52.66 12.60L52.66 12.60L52.66 12.60Q53.16 13.03 53.87 13.03L53.87 13.03L53.87 13.03Q54.29 13.03 54.60 12.94L54.60 12.94L54.60 12.94Q54.91 12.84 55.15 12.73L55.15 12.73L55.15 12.73Q55.43 12.92 55.57 13.15L55.57 13.15L55.57 13.15Q55.71 13.38 55.71 13.71L55.71 13.71L55.71 13.71Q55.71 14.28 55.16 14.60L55.16 14.60L55.16 14.60Q54.61 14.91 53.65 14.91L53.65 14.91L53.65 14.91Q52.77 14.91 52.05 14.65L52.05 14.65L52.05 14.65Q51.34 14.39 50.83 13.92L50.83 13.92L50.83 13.92Q50.32 13.45 50.04 12.80L50.04 12.80L50.04 12.80Q49.76 12.14 49.76 11.34L49.76 11.34L49.76 11.34Q49.76 10.42 50.06 9.72L50.06 9.72L50.06 9.72Q50.36 9.03 50.88 8.58L50.88 8.58L50.88 8.58Q51.39 8.13 52.07 7.91L52.07 7.91L52.07 7.91Q52.75 7.69 53.51 7.69L53.51 7.69L53.51 7.69Q54.52 7.69 55.06 8.05L55.06 8.05L55.06 8.05Q55.61 8.41 55.61 8.99L55.61 8.99L55.61 8.99Q55.61 9.25 55.48 9.49L55.48 9.49L55.48 9.49Q55.36 9.72 55.19 9.88L55.19 9.88L55.19 9.88Q54.95 9.77 54.61 9.67L54.61 9.67L54.61 9.67Q54.28 9.56 53.89 9.56ZM63.62 10.44L63.62 14.69L63.62 14.69Q63.48 14.73 63.17 14.77L63.17 14.77L63.17 14.77Q62.87 14.81 62.55 14.81L62.55 14.81L62.55 14.81Q62.24 14.81 62.00 14.77L62.00 14.77L62.00 14.77Q61.75 14.73 61.59 14.60L61.59 14.60L61.59 14.60Q61.42 14.48 61.33 14.26L61.33 14.26L61.33 14.26Q61.24 14.04 61.24 13.69L61.24 13.69L61.24 10.58L61.24 10.58Q61.24 10.01 60.95 9.78L60.95 9.78L60.95 9.78Q60.66 9.55 60.24 9.55L60.24 9.55L60.24 9.55Q59.96 9.55 59.71 9.62L59.71 9.62L59.71 9.62Q59.46 9.69 59.30 9.79L59.30 9.79L59.30 14.69L59.30 14.69Q59.16 14.73 58.86 14.77L58.86 14.77L58.86 14.77Q58.56 14.81 58.24 14.81L58.24 14.81L58.24 14.81Q57.93 14.81 57.69 14.77L57.69 14.77L57.69 14.77Q57.44 14.73 57.27 14.60L57.27 14.60L57.27 14.60Q57.11 14.48 57.01 14.26L57.01 14.26L57.01 14.26Q56.92 14.04 56.92 13.69L56.92 13.69L56.92 5.57L56.92 5.57Q57.08 5.54 57.38 5.50L57.38 5.50L57.38 5.50Q57.68 5.45 57.99 5.45L57.99 5.45L57.99 5.45Q58.30 5.45 58.54 5.49L58.54 5.49L58.54 5.49Q58.79 5.53 58.95 5.66L58.95 5.66L58.95 5.66Q59.12 5.78 59.21 6.00L59.21 6.00L59.21 6.00Q59.30 6.22 59.30 6.57L59.30 6.57L59.30 7.94L59.30 7.94Q59.49 7.87 59.86 7.78L59.86 7.78L59.86 7.78Q60.23 7.69 60.68 7.69L60.68 7.69L60.68 7.69Q62.06 7.69 62.84 8.38L62.84 8.38L62.84 8.38Q63.62 9.07 63.62 10.44L63.62 10.44ZM64.67 13.57L64.67 13.57L64.67 13.57Q64.67 12.98 65.03 12.59L65.03 12.59L65.03 12.59Q65.39 12.19 66.02 12.19L66.02 12.19L66.02 12.19Q66.65 12.19 67.02 12.59L67.02 12.59L67.02 12.59Q67.38 12.98 67.38 13.57L67.38 13.57L67.38 13.57Q67.38 14.15 67.02 14.55L67.02 14.55L67.02 14.55Q66.65 14.94 66.02 14.94L66.02 14.94L66.02 14.94Q65.39 14.94 65.03 14.55L65.03 14.55L65.03 14.55Q64.67 14.15 64.67 13.57Z"></path></g><!----><!----></svg>