<svg data-v-423bf9ae="" xmlns="http://www.w3.org/2000/svg" viewBox="0 0 500 90" class="iconLeftSlogan"><!----><!----><!----><g data-v-423bf9ae="" id="67362e20-6ab4-4377-8d19-ccecb5b4950d" fill="black" transform="matrix(5.940593835033989,0,0,5.940593835033989,112.25741106042955,-19.24752479741978)"><path d="M7.73 3.82L6.01 3.82L3.68 7.42L1.34 3.82L-0.38 3.82L2.93 8.82L2.93 13.15L4.42 13.15L4.42 8.84ZM14.53 9.70C14.53 7.73 13.20 6.36 11.27 6.36C9.28 6.36 7.86 7.89 7.86 9.84C7.86 11.80 9.26 13.31 11.43 13.31C12.59 13.31 13.55 12.92 14.15 12.25L13.17 11.46C12.75 11.94 12.18 12.19 11.42 12.19C10.18 12.19 9.45 11.33 9.35 10.15L14.53 10.15ZM11.27 7.50C12.31 7.50 12.98 8.12 13.13 9.17L9.41 9.17C9.61 8.17 10.30 7.50 11.27 7.50ZM17.69 11.87L17.69 3.82L16.20 3.82L16.20 13.15L22.01 13.15L22.01 11.87ZM27.42 6.53L27.42 10.57C27.30 11.74 26.51 12.12 25.77 12.12C24.75 12.12 24.31 11.39 24.31 10.31L24.31 6.53L22.90 6.53L22.90 10.63C22.90 12.69 24.22 13.33 25.38 13.33C26.31 13.33 27.02 12.95 27.42 12.37L27.59 13.15L28.83 13.15L28.83 6.53ZM40.67 3.82L33.47 3.82L33.47 5.09L36.34 5.09L36.34 13.15L37.83 13.15L37.83 5.09L40.67 5.09ZM47.91 9.70C47.91 7.73 46.58 6.36 44.65 6.36C42.66 6.36 41.24 7.89 41.24 9.84C41.24 11.80 42.64 13.31 44.81 13.31C45.97 13.31 46.93 12.92 47.53 12.25L46.55 11.46C46.13 11.94 45.56 12.19 44.80 12.19C43.56 12.19 42.83 11.33 42.73 10.15L47.91 10.15ZM44.65 7.50C45.69 7.50 46.36 8.12 46.51 9.17L42.79 9.17C42.99 8.17 43.68 7.50 44.65 7.50ZM52.41 13.34C53.33 13.34 54.08 13.07 54.69 12.60L53.87 11.58C53.51 11.93 53.00 12.13 52.44 12.13C51.14 12.13 50.37 11.14 50.37 9.84C50.37 8.55 51.14 7.57 52.44 7.57C53.00 7.57 53.51 7.77 53.87 8.12L54.69 7.10C54.08 6.64 53.33 6.36 52.41 6.36C50.36 6.36 48.93 7.89 48.93 9.84C48.93 11.81 50.36 13.34 52.41 13.34ZM59.25 6.36C58.30 6.36 57.60 6.75 57.20 7.32L57.20 3.24L55.78 3.24L55.78 13.15L57.20 13.15L57.20 9.42C57.20 8.02 58.06 7.57 58.86 7.57C59.88 7.57 60.32 8.30 60.32 9.38L60.32 13.15L61.73 13.15L61.73 9.06C61.73 7 60.40 6.36 59.25 6.36ZM64.34 13.29C64.85 13.29 65.26 12.88 65.26 12.38C65.26 11.89 64.85 11.48 64.34 11.48C63.83 11.48 63.42 11.89 63.42 12.38C63.42 12.88 63.83 13.29 64.34 13.29Z"></path></g><!----><g data-v-423bf9ae="" id="d1fc2ee7-8340-4f15-a5e0-5ac547d8d021" transform="matrix(1,0,0,1,-5,-4)" stroke="none" fill="black"><path d="M75 4.333H25c-11.046 0-20 8.955-20 20v50c0 11.046 8.954 20 20 20h50c11.046 0 20-8.954 20-20v-50c0-11.045-8.954-20-20-20zm18 70c0 9.926-8.075 18-18 18H25c-9.925 0-18-8.074-18-18v-50c0-9.925 8.075-18 18-18h50c9.925 0 18 8.075 18 18v50z"></path><circle cx="37" cy="25" r="9.5"></circle><circle cx="63" cy="25" r="9.5"></circle><circle cx="63" cy="50" r="9.5"></circle><path d="M37 57.125a7.125 7.125 0 1 0 0-14.25 7.125 7.125 0 0 0 0 14.25zm0-11.875c2.62 0 4.75 2.13 4.75 4.75s-2.13 4.75-4.75 4.75-4.75-2.13-4.75-4.75 2.13-4.75 4.75-4.75z"></path><circle cx="37" cy="75" r="9.5"></circle><circle cx="63" cy="75" r="9.5"></circle></g><!----><g data-v-423bf9ae="" id="860c4472-9661-435f-9fce-08f5917529a7" fill="black" transform="matrix(0.594670880326722,0,0,0.594670880326722,109.71455806670792,59.00095305845753)"><path d="M4.06 10.64C2.51 10.64 1.53 9.42 1.53 7.98C1.53 6.54 2.51 5.32 4.06 5.32C5.05 5.32 5.77 5.88 6.09 6.68L7.22 6.68C6.82 5.32 5.57 4.37 3.92 4.37C1.82 4.37 0.48 5.98 0.48 7.98C0.48 9.98 1.82 11.59 3.92 11.59C5.57 11.59 6.82 10.64 7.22 9.28L6.09 9.28C5.77 10.08 5.05 10.64 4.06 10.64ZM15.53 1.68L15.53 11.48L16.58 11.48L16.58 7.45C16.58 6.19 17.53 5.32 18.69 5.32C19.84 5.32 20.65 6.16 20.65 7.43L20.65 11.48L21.70 11.48L21.70 7.41C21.70 5.42 20.34 4.37 18.90 4.37C17.77 4.37 17.08 4.90 16.58 5.57L16.58 1.68ZM33.40 4.37C31.36 4.37 30.02 5.98 30.02 7.98C30.02 9.98 31.36 11.59 33.40 11.59C34.57 11.59 35.39 11.12 35.91 10.36L35.91 11.48L36.96 11.48L36.96 4.48L35.91 4.48L35.91 5.61C35.39 4.86 34.57 4.37 33.40 4.37ZM33.54 10.64C31.99 10.64 31.07 9.42 31.07 7.98C31.07 6.54 31.99 5.32 33.54 5.32C35.10 5.32 35.97 6.54 35.97 7.98C35.97 9.42 35.10 10.64 33.54 10.64ZM45.78 4.48L45.78 11.48L46.83 11.48L46.83 7.45C46.83 6.19 47.78 5.32 48.94 5.32C50.09 5.32 50.90 6.16 50.90 7.43L50.90 11.48L51.95 11.48L51.95 7.41C51.95 5.42 50.60 4.37 49.15 4.37C48.02 4.37 47.33 4.90 46.83 5.57L46.83 4.48ZM66.16 4.48L66.16 5.60C65.65 4.84 64.82 4.37 63.66 4.37C61.61 4.37 60.27 5.92 60.27 7.92C60.27 9.93 61.61 11.48 63.66 11.48C64.82 11.48 65.65 10.99 66.16 10.23L66.16 11.20C66.16 12.64 65.46 13.41 63.85 13.41C62.79 13.41 62.09 13.01 61.81 12.32L60.65 12.32C61.04 13.54 62.15 14.36 63.91 14.36C66.01 14.36 67.21 13.27 67.21 11.27L67.21 4.48ZM63.80 10.53C62.24 10.53 61.32 9.37 61.32 7.92C61.32 6.48 62.24 5.32 63.80 5.32C65.32 5.32 66.22 6.48 66.22 7.92C66.22 9.37 65.32 10.53 63.80 10.53ZM76.03 11.48L77.08 11.48L77.08 4.48L76.03 4.48ZM75.99 1.93L75.99 3.30L77.13 3.30L77.13 1.93ZM85.90 4.48L85.90 11.48L86.95 11.48L86.95 7.45C86.95 6.19 87.91 5.32 89.07 5.32C90.22 5.32 91.03 6.16 91.03 7.43L91.03 11.48L92.08 11.48L92.08 7.41C92.08 5.42 90.72 4.37 89.28 4.37C88.14 4.37 87.46 4.90 86.95 5.57L86.95 4.48ZM106.29 4.48L106.29 5.60C105.77 4.84 104.94 4.37 103.78 4.37C101.74 4.37 100.39 5.92 100.39 7.92C100.39 9.93 101.74 11.48 103.78 11.48C104.94 11.48 105.77 10.99 106.29 10.23L106.29 11.20C106.29 12.64 105.59 13.41 103.98 13.41C102.91 13.41 102.21 13.01 101.93 12.32L100.77 12.32C101.16 13.54 102.27 14.36 104.03 14.36C106.13 14.36 107.34 13.27 107.34 11.27L107.34 4.48ZM103.92 10.53C102.37 10.53 101.44 9.37 101.44 7.92C101.44 6.48 102.37 5.32 103.92 5.32C105.45 5.32 106.34 6.48 106.34 7.92C106.34 9.37 105.45 10.53 103.92 10.53ZM127.95 11.48L127.95 5.40L129.56 5.40L129.56 4.48L127.95 4.48L127.95 1.97L126.90 1.97L126.90 4.48L125.47 4.48L125.47 5.40L126.90 5.40L126.90 11.48ZM137.70 1.68L137.70 11.48L138.75 11.48L138.75 7.45C138.75 6.19 139.71 5.32 140.87 5.32C142.02 5.32 142.83 6.16 142.83 7.43L142.83 11.48L143.88 11.48L143.88 7.41C143.88 5.42 142.52 4.37 141.08 4.37C139.94 4.37 139.26 4.90 138.75 5.57L138.75 1.68ZM155.75 10.64C154.34 10.64 153.43 9.65 153.27 8.40L159.14 8.40L159.14 7.98C159.14 5.98 157.81 4.37 155.67 4.37C153.52 4.37 152.19 5.98 152.19 7.98C152.19 9.98 153.59 11.59 155.74 11.59C157.40 11.59 158.44 10.72 158.93 9.46L157.78 9.46C157.40 10.16 156.73 10.64 155.75 10.64ZM155.67 5.32C157.01 5.32 157.85 6.23 158.05 7.42L153.29 7.42C153.48 6.23 154.32 5.32 155.67 5.32ZM183.53 11.48L184.73 11.48L186.93 4.48L185.81 4.48L184.13 10.18L182.35 4.48L181.20 4.48L179.42 10.18L177.74 4.48L176.62 4.48L178.82 11.48L180.03 11.48L181.78 5.89ZM197.95 4.37C195.80 4.37 194.47 5.98 194.47 7.98C194.47 9.98 195.80 11.59 197.95 11.59C200.09 11.59 201.42 9.98 201.42 7.98C201.42 5.98 200.09 4.37 197.95 4.37ZM197.95 10.64C196.39 10.64 195.52 9.42 195.52 7.98C195.52 6.54 196.39 5.32 197.95 5.32C199.50 5.32 200.37 6.54 200.37 7.98C200.37 9.42 199.50 10.64 197.95 10.64ZM213.43 4.37C211.69 4.37 210.99 5.73 210.85 6.20L210.85 4.48L209.80 4.48L209.80 11.48L210.85 11.48L210.85 8.40C210.85 6.86 211.81 5.42 213.37 5.42L213.50 5.42L213.50 4.37ZM222.68 1.68L221.63 1.68L221.63 11.48L222.68 11.48ZM234.46 4.37C232.41 4.37 231.07 5.98 231.07 7.98C231.07 9.98 232.41 11.59 234.46 11.59C235.62 11.59 236.45 11.12 236.96 10.36L236.96 11.48L238.01 11.48L238.01 1.68L236.96 1.68L236.96 5.61C236.45 4.86 235.62 4.37 234.46 4.37ZM234.60 10.64C233.04 10.64 232.12 9.42 232.12 7.98C232.12 6.54 233.04 5.32 234.60 5.32C236.15 5.32 237.02 6.54 237.02 7.98C237.02 9.42 236.15 10.64 234.60 10.64ZM258.62 11.48L258.62 5.40L260.23 5.40L260.23 4.48L258.62 4.48L258.62 1.97L257.57 1.97L257.57 4.48L256.14 4.48L256.14 5.40L257.57 5.40L257.57 11.48ZM268.38 1.68L268.38 11.48L269.43 11.48L269.43 7.45C269.43 6.19 270.38 5.32 271.54 5.32C272.69 5.32 273.50 6.16 273.50 7.43L273.50 11.48L274.55 11.48L274.55 7.41C274.55 5.42 273.20 4.37 271.75 4.37C270.62 4.37 269.93 4.90 269.43 5.57L269.43 1.68ZM286.93 4.37C285.19 4.37 284.49 5.73 284.35 6.20L284.35 4.48L283.30 4.48L283.30 11.48L284.35 11.48L284.35 8.40C284.35 6.86 285.31 5.42 286.87 5.42L287 5.42L287 4.37ZM297.99 4.37C295.85 4.37 294.52 5.98 294.52 7.98C294.52 9.98 295.85 11.59 297.99 11.59C300.13 11.59 301.46 9.98 301.46 7.98C301.46 5.98 300.13 4.37 297.99 4.37ZM297.99 10.64C296.44 10.64 295.57 9.42 295.57 7.98C295.57 6.54 296.44 5.32 297.99 5.32C299.54 5.32 300.41 6.54 300.41 7.98C300.41 9.42 299.54 10.64 297.99 10.64ZM315.95 11.48L315.95 4.48L314.90 4.48L314.90 8.51C314.90 9.77 313.95 10.64 312.79 10.64C311.64 10.64 310.83 9.80 310.83 8.53L310.83 4.48L309.78 4.48L309.78 8.55C309.78 10.54 311.14 11.59 312.58 11.59C313.71 11.59 314.40 11.06 314.90 10.39L314.90 11.48ZM330.23 4.48L330.23 5.60C329.71 4.84 328.89 4.37 327.73 4.37C325.68 4.37 324.34 5.92 324.34 7.92C324.34 9.93 325.68 11.48 327.73 11.48C328.89 11.48 329.71 10.99 330.23 10.23L330.23 11.20C330.23 12.64 329.53 13.41 327.92 13.41C326.86 13.41 326.16 13.01 325.88 12.32L324.72 12.32C325.11 13.54 326.21 14.36 327.98 14.36C330.08 14.36 331.28 13.27 331.28 11.27L331.28 4.48ZM327.87 10.53C326.31 10.53 325.39 9.37 325.39 7.92C325.39 6.48 326.31 5.32 327.87 5.32C329.39 5.32 330.29 6.48 330.29 7.92C330.29 9.37 329.39 10.53 327.87 10.53ZM340.10 1.68L340.10 11.48L341.15 11.48L341.15 7.45C341.15 6.19 342.10 5.32 343.27 5.32C344.41 5.32 345.23 6.16 345.23 7.43L345.23 11.48L346.28 11.48L346.28 7.41C346.28 5.42 344.92 4.37 343.48 4.37C342.34 4.37 341.66 4.90 341.15 5.57L341.15 1.68ZM366.81 11.48L366.81 5.40L368.42 5.40L368.42 4.48L366.81 4.48L366.81 1.97L365.76 1.97L365.76 4.48L364.34 4.48L364.34 5.40L365.76 5.40L365.76 11.48ZM379.55 10.64C378.14 10.64 377.23 9.65 377.08 8.40L382.94 8.40L382.94 7.98C382.94 5.98 381.61 4.37 379.47 4.37C377.33 4.37 376.00 5.98 376.00 7.98C376.00 9.98 377.40 11.59 379.54 11.59C381.21 11.59 382.24 10.72 382.73 9.46L381.58 9.46C381.21 10.16 380.53 10.64 379.55 10.64ZM379.47 5.32C380.81 5.32 381.65 6.23 381.85 7.42L377.09 7.42C377.29 6.23 378.13 5.32 379.47 5.32ZM394.38 10.64C392.83 10.64 391.85 9.42 391.85 7.98C391.85 6.54 392.83 5.32 394.38 5.32C395.37 5.32 396.09 5.88 396.41 6.68L397.54 6.68C397.14 5.32 395.89 4.37 394.24 4.37C392.14 4.37 390.80 5.98 390.80 7.98C390.80 9.98 392.14 11.59 394.24 11.59C395.89 11.59 397.14 10.64 397.54 9.28L396.41 9.28C396.09 10.08 395.37 10.64 394.38 10.64ZM405.85 1.68L405.85 11.48L406.90 11.48L406.90 7.45C406.90 6.19 407.85 5.32 409.01 5.32C410.16 5.32 410.97 6.16 410.97 7.43L410.97 11.48L412.02 11.48L412.02 7.41C412.02 5.42 410.66 4.37 409.22 4.37C408.09 4.37 407.40 4.90 406.90 5.57L406.90 1.68ZM420.77 4.48L420.77 11.48L421.82 11.48L421.82 7.45C421.82 6.19 422.77 5.32 423.93 5.32C425.08 5.32 425.89 6.16 425.89 7.43L425.89 11.48L426.94 11.48L426.94 7.41C426.94 5.42 425.59 4.37 424.14 4.37C423.01 4.37 422.32 4.90 421.82 5.57L421.82 4.48ZM438.73 4.37C436.59 4.37 435.26 5.98 435.26 7.98C435.26 9.98 436.59 11.59 438.73 11.59C440.87 11.59 442.20 9.98 442.20 7.98C442.20 5.98 440.87 4.37 438.73 4.37ZM438.73 10.64C437.18 10.64 436.31 9.42 436.31 7.98C436.31 6.54 437.18 5.32 438.73 5.32C440.29 5.32 441.15 6.54 441.15 7.98C441.15 9.42 440.29 10.64 438.73 10.64ZM451.64 1.68L450.59 1.68L450.59 11.48L451.64 11.48ZM463.50 4.37C461.36 4.37 460.03 5.98 460.03 7.98C460.03 9.98 461.36 11.59 463.50 11.59C465.64 11.59 466.97 9.98 466.97 7.98C466.97 5.98 465.64 4.37 463.50 4.37ZM463.50 10.64C461.94 10.64 461.08 9.42 461.08 7.98C461.08 6.54 461.94 5.32 463.50 5.32C465.05 5.32 465.92 6.54 465.92 7.98C465.92 9.42 465.05 10.64 463.50 10.64ZM480.82 4.48L480.82 5.60C480.30 4.84 479.47 4.37 478.31 4.37C476.27 4.37 474.92 5.92 474.92 7.92C474.92 9.93 476.27 11.48 478.31 11.48C479.47 11.48 480.30 10.99 480.82 10.23L480.82 11.20C480.82 12.64 480.12 13.41 478.51 13.41C477.44 13.41 476.74 13.01 476.46 12.32L475.30 12.32C475.69 13.54 476.80 14.36 478.56 14.36C480.66 14.36 481.87 13.27 481.87 11.27L481.87 4.48ZM478.45 10.53C476.90 10.53 475.97 9.37 475.97 7.92C475.97 6.48 476.90 5.32 478.45 5.32C479.98 5.32 480.87 6.48 480.87 7.92C480.87 9.37 479.98 10.53 478.45 10.53ZM496.69 4.48L495.54 4.48L493.25 10.22L490.99 4.48L489.83 4.48L492.69 11.38L491.41 14.25L492.55 14.25ZM504.01 10.05L504.01 11.48L505.37 11.48L505.37 10.05ZM513.86 10.05L513.86 11.48L515.21 11.48L515.21 10.05ZM523.70 10.05L523.70 11.48L525.06 11.48L525.06 10.05Z"></path></g></svg>