<svg data-v-423bf9ae="" xmlns="http://www.w3.org/2000/svg" viewBox="0 0 389.9405757057803 60" class="font"><!----><!----><!----><g data-v-423bf9ae="" id="0e1fc0f0-59d5-4c82-bfe5-7aa94b421e40" fill="black" transform="matrix(5.940593835033989,0,0,5.940593835033989,2.2574263192186095,-19.24752479741978)"><path d="M7.73 3.82L6.01 3.82L3.68 7.42L1.34 3.82L-0.38 3.82L2.93 8.82L2.93 13.15L4.42 13.15L4.42 8.84ZM14.53 9.70C14.53 7.73 13.20 6.36 11.27 6.36C9.28 6.36 7.86 7.89 7.86 9.84C7.86 11.80 9.26 13.31 11.43 13.31C12.59 13.31 13.55 12.92 14.15 12.25L13.17 11.46C12.75 11.94 12.18 12.19 11.42 12.19C10.18 12.19 9.45 11.33 9.35 10.15L14.53 10.15ZM11.27 7.50C12.31 7.50 12.98 8.12 13.13 9.17L9.41 9.17C9.61 8.17 10.30 7.50 11.27 7.50ZM17.69 11.87L17.69 3.82L16.20 3.82L16.20 13.15L22.01 13.15L22.01 11.87ZM27.42 6.53L27.42 10.57C27.30 11.74 26.51 12.12 25.77 12.12C24.75 12.12 24.31 11.39 24.31 10.31L24.31 6.53L22.90 6.53L22.90 10.63C22.90 12.69 24.22 13.33 25.38 13.33C26.31 13.33 27.02 12.95 27.42 12.37L27.59 13.15L28.83 13.15L28.83 6.53ZM40.67 3.82L33.47 3.82L33.47 5.09L36.34 5.09L36.34 13.15L37.83 13.15L37.83 5.09L40.67 5.09ZM47.91 9.70C47.91 7.73 46.58 6.36 44.65 6.36C42.66 6.36 41.24 7.89 41.24 9.84C41.24 11.80 42.64 13.31 44.81 13.31C45.97 13.31 46.93 12.92 47.53 12.25L46.55 11.46C46.13 11.94 45.56 12.19 44.80 12.19C43.56 12.19 42.83 11.33 42.73 10.15L47.91 10.15ZM44.65 7.50C45.69 7.50 46.36 8.12 46.51 9.17L42.79 9.17C42.99 8.17 43.68 7.50 44.65 7.50ZM52.41 13.34C53.33 13.34 54.08 13.07 54.69 12.60L53.87 11.58C53.51 11.93 53.00 12.13 52.44 12.13C51.14 12.13 50.37 11.14 50.37 9.84C50.37 8.55 51.14 7.57 52.44 7.57C53.00 7.57 53.51 7.77 53.87 8.12L54.69 7.10C54.08 6.64 53.33 6.36 52.41 6.36C50.36 6.36 48.93 7.89 48.93 9.84C48.93 11.81 50.36 13.34 52.41 13.34ZM59.25 6.36C58.30 6.36 57.60 6.75 57.20 7.32L57.20 3.24L55.78 3.24L55.78 13.15L57.20 13.15L57.20 9.42C57.20 8.02 58.06 7.57 58.86 7.57C59.88 7.57 60.32 8.30 60.32 9.38L60.32 13.15L61.73 13.15L61.73 9.06C61.73 7 60.40 6.36 59.25 6.36ZM64.34 13.29C64.85 13.29 65.26 12.88 65.26 12.38C65.26 11.89 64.85 11.48 64.34 11.48C63.83 11.48 63.42 11.89 63.42 12.38C63.42 12.88 63.83 13.29 64.34 13.29Z"></path></g><!----><!----></svg>